<svg width="1343" height="431" viewBox="0 0 1343 431" fill="none" xmlns="http://www.w3.org/2000/svg">
<g clip-path="url(#clip0_12985_114360)">
<path d="M239.538 300.832C239.009 302.054 238.806 303.392 238.948 304.716C239.091 306.04 239.573 307.305 240.35 308.387C241.126 309.469 242.169 310.331 243.378 310.89C244.587 311.449 245.92 311.685 247.247 311.576C249.315 311.334 252.78 309.4 250.927 306.875C250.478 306.421 249.926 306.084 249.317 305.892C248.709 305.7 248.063 305.66 247.435 305.774C246.067 305.859 244.777 306.442 243.809 307.412C242.954 308.299 242.351 309.397 242.061 310.595C241.772 311.792 241.807 313.045 242.163 314.224C242.518 315.403 243.182 316.466 244.085 317.304C244.988 318.141 246.098 318.723 247.301 318.989C248.447 319.218 249.636 319.083 250.701 318.601C251.766 318.119 252.653 317.315 253.237 316.303C253.418 315.84 253.467 315.337 253.378 314.848C253.29 314.359 253.068 313.904 252.737 313.534C252.406 313.164 251.978 312.893 251.502 312.751C251.026 312.609 250.52 312.602 250.04 312.731C248.762 313.163 247.693 314.06 247.046 315.245C246.399 316.429 246.221 317.814 246.549 319.123C246.919 320.426 247.749 321.549 248.885 322.286C250.022 323.022 251.387 323.32 252.726 323.125C253.371 322.991 252.726 321.917 252.324 321.944C251.468 322.039 250.603 321.86 249.856 321.432C249.109 321.003 248.518 320.348 248.168 319.561C247.817 318.774 247.727 317.897 247.909 317.055C248.091 316.213 248.537 315.451 249.181 314.879C249.745 314.342 250.846 313.617 251.652 313.966C252.458 314.315 252.109 314.127 252.055 314.611C252.067 314.799 252.067 314.987 252.055 315.175C251.899 315.628 251.631 316.035 251.276 316.357C250.691 316.873 249.988 317.236 249.229 317.414C248.469 317.592 247.678 317.579 246.925 317.377C243.245 316.41 242.6 311.576 244.427 308.89C244.937 308.11 245.674 307.506 246.539 307.161C247.404 306.815 248.355 306.743 249.262 306.956C250.631 307.385 249.53 308.755 248.805 309.239C247.947 309.783 246.947 310.064 245.931 310.045C241.365 310.045 239.323 305.237 240.183 301.261C240.183 300.939 239.699 300.16 239.458 300.697L239.538 300.832Z" fill="#E0E0E0"/>
<path d="M236.829 297.635C234.143 305.102 232.021 312.65 229.174 320.037C226.236 327.733 222.846 335.249 219.021 342.545C211.286 356.887 202.202 370.459 191.892 383.077C186.52 389.819 181.148 396.856 179.241 405.398C179.053 406.15 179.913 407.412 180.396 406.257C186.682 391.592 198.204 380.391 207.015 367.337C216.164 353.754 223.777 339.196 229.711 323.931C233.171 315.457 235.807 306.669 237.581 297.689C237.689 297.018 237.017 297.125 236.829 297.635Z" fill="#E0E0E0"/>
<path d="M229.44 298.146C230.354 295.138 239.083 288.772 240.184 289.121C241.286 289.47 244.536 299.247 243.569 302.551C243.325 303.161 242.922 303.694 242.403 304.095C241.883 304.497 241.266 304.752 240.614 304.834C238.819 305.155 236.973 305.048 235.228 304.52C233.482 303.993 231.886 303.061 230.569 301.799C230.07 301.369 229.696 300.813 229.483 300.19C229.271 299.567 229.228 298.899 229.36 298.254L229.44 298.146Z" fill="#75C868"/>
<path d="M214.883 222.642C207.926 245.634 217.166 280.15 239.057 292.801C264.816 293.338 291.165 270.856 298.149 247.864C305.133 224.872 296.806 198.898 270 190.759C243.193 182.621 221.947 199.623 214.883 222.642Z" fill="#75C868"/>
<path opacity="0.3" d="M214.883 222.642C207.926 245.634 217.166 280.15 239.057 292.801C264.816 293.338 291.165 270.856 298.149 247.864C305.133 224.872 296.806 198.898 270 190.759C243.193 182.621 221.947 199.623 214.883 222.642Z" fill="white"/>
<path opacity="0.3" d="M239.193 218.856C239.246 220.299 239.407 221.735 239.676 223.154C240.643 227.263 244.027 221.193 244.726 220.119C245.524 218.688 246.422 217.315 247.412 216.009C248.298 215.096 249.668 216.009 250.608 216.224C251.548 216.439 257.565 218.373 257.404 215.875C257.117 215.068 256.669 214.328 256.088 213.699C254.906 212.222 252.542 210.691 252.139 208.757C251.844 207.253 253.267 205.883 253.992 204.701C254.449 203.976 256.678 200.968 254.664 200.699C253.452 200.844 252.272 201.189 251.172 201.72C249.587 202.176 248.003 202.74 246.418 203.251C243.732 204.137 241.771 200.914 239.783 199.732C238.226 198.819 237.259 198.604 237.097 200.618C237.017 201.826 237.017 203.037 237.097 204.244C237.097 205.856 237.097 207.656 235.271 208.3C233.64 208.825 232.12 209.644 230.785 210.718C229.469 211.792 228.798 212.705 230.785 213.404C233.23 214.209 235.862 214.183 238.279 215.042C239.595 215.526 239.058 217.567 239.193 218.856ZM270.511 214.183C270.536 214.113 270.536 214.037 270.511 213.968C271.183 216.331 267.825 217.486 266.509 218.829C264.199 221.113 269.544 220.871 270.511 220.924C271.754 220.817 273.003 220.817 274.245 220.924C275.185 221.113 275.131 222.375 275.346 223.1C275.561 223.825 276.716 228.472 278.301 227.398C278.716 226.895 279.019 226.309 279.187 225.679C279.697 224.336 279.778 222.16 280.879 221.139C281.981 220.119 283.216 220.71 284.264 220.71C285.311 220.71 287.755 220.924 287.165 219.555C286.869 218.856 285.66 218.185 285.123 217.701C284.586 217.218 283.162 216.009 282.195 215.176C280.584 213.807 281.873 211.201 281.873 209.428C281.873 207.656 281.605 207.333 280.181 207.951C279.359 208.377 278.569 208.862 277.817 209.402C276.743 210.046 275.561 210.718 274.433 209.804C273.432 208.953 272.285 208.288 271.049 207.844C269.813 207.414 268.953 207.333 269.329 208.891C269.706 210.449 270.108 212.437 270.511 214.183ZM254.959 273.731C254.019 272.845 253.025 272.039 252.059 271.206C250.447 269.863 251.736 267.231 251.709 265.458C251.682 263.686 251.468 263.363 250.044 263.981C249.217 264.413 248.418 264.897 247.653 265.432C246.606 266.076 245.397 266.748 244.269 265.861C243.279 265.002 242.141 264.328 240.912 263.874C239.676 263.444 238.817 263.363 239.166 264.948C239.515 266.533 240.052 268.413 240.455 270.32C240.486 270.243 240.486 270.156 240.455 270.078C241.126 272.469 237.769 273.597 236.426 274.94C234.143 277.223 239.461 277.008 240.455 277.035C241.689 276.941 242.928 276.941 244.162 277.035C245.102 277.25 245.075 278.485 245.29 279.211C245.505 279.936 246.66 284.583 248.218 283.508C248.651 283.014 248.964 282.425 249.131 281.789C249.614 280.446 249.695 278.271 250.796 277.25C251.897 276.229 253.133 276.82 254.207 276.847C254.852 276.847 257.672 277.062 257.081 275.665C256.705 274.886 255.497 274.242 254.959 273.731ZM239.542 242.627C239.542 241.714 240.133 241.338 240.697 240.747C241.261 240.156 243.222 239.055 242.12 238.061C241.019 237.067 240.24 237.605 239.434 237.551C238.629 237.497 238.279 237.229 237.715 237.148C237.332 237.136 236.959 237.023 236.633 236.82C236.308 236.617 236.042 236.332 235.862 235.993C235.493 235.247 235.071 234.529 234.6 233.844C233.901 232.985 233.364 232.662 232.773 233.844C232.474 234.545 232.214 235.263 231.994 235.993C231.838 236.608 231.512 237.166 231.054 237.605C230.311 238.003 229.5 238.258 228.663 238.357C227.992 238.357 226.327 238.357 225.977 239.109C225.628 239.861 226.864 240.398 227.267 240.693C228.208 241.292 229.105 241.956 229.953 242.681H229.792C231.43 243.863 229.792 246.28 229.792 247.838C229.496 250.524 233.015 247.301 233.606 246.764C234.197 246.227 234.573 245.475 235.244 245.475C236.041 245.597 236.801 245.89 237.474 246.334C238.038 246.603 241.234 248.429 241.368 247.301C241.503 246.173 240.804 245.501 240.536 244.615C240.15 243.981 239.818 243.316 239.542 242.627ZM282.034 258.367C281.679 257.311 281.427 256.222 281.282 255.117C281.282 253.64 282.41 253.157 283.431 252.431C284.452 251.706 287.702 250.175 286.117 248.563C285.016 247.435 283.189 247.516 281.793 247.247C280.852 247.086 279.993 246.576 279.107 246.361C278.505 246.273 277.937 246.025 277.465 245.642C276.992 245.259 276.631 244.756 276.421 244.185C275.937 242.954 275.381 241.752 274.755 240.586C273.788 239.082 272.982 238.464 271.881 240.156C271.289 241.207 270.759 242.292 270.296 243.406C269.93 244.355 269.318 245.189 268.524 245.824C267.273 246.317 265.946 246.59 264.602 246.63C263.501 246.63 260.869 246.28 260.143 247.355C259.418 248.429 261.352 249.53 261.943 250.041C263.356 251.101 264.685 252.268 265.918 253.533L265.65 253.345C268.04 255.493 265.193 259.093 264.656 261.403C263.743 265.593 269.867 261.107 270.914 260.328C271.962 259.549 272.66 258.475 273.6 258.555C274.845 258.896 276.007 259.491 277.011 260.301C277.844 260.838 282.625 264.277 283.055 262.504C283.35 261.268 282.437 259.683 282.034 258.367Z" fill="white"/>
<path opacity="0.4" d="M292.777 259.334C292.777 259.334 279.884 279.533 252.057 273.033C225.197 266.747 212.546 231.373 219.154 212.463C217.381 215.699 215.95 219.111 214.883 222.643C207.926 245.635 217.166 280.151 239.057 292.802C260.545 293.258 282.033 277.894 292.938 259.522L292.777 259.334Z" fill="#75C868"/>
<path d="M97.2937 256.272C96.109 257.644 95.2987 259.299 94.9412 261.076C94.5837 262.853 94.691 264.693 95.2529 266.416C95.8148 268.14 96.8122 269.689 98.1485 270.914C99.4848 272.139 101.115 272.998 102.881 273.408C105.567 273.946 110.482 273.22 109.81 269.379C109.139 265.538 103.31 265.189 100.571 266.371C99.0278 267.073 97.7027 268.178 96.735 269.57C95.7673 270.962 95.1928 272.589 95.0718 274.279C94.9508 275.97 95.288 277.662 96.0477 279.178C96.8074 280.693 97.9616 281.975 99.3888 282.89C100.703 283.699 102.221 284.114 103.764 284.086C105.306 284.057 106.809 283.586 108.091 282.729C108.712 282.328 109.189 281.741 109.454 281.051C109.719 280.362 109.759 279.607 109.568 278.893C109.377 278.18 108.965 277.546 108.391 277.081C107.817 276.617 107.11 276.347 106.372 276.309C104.445 276.205 102.553 276.857 101.098 278.126C99.6433 279.395 98.741 281.181 98.583 283.105C98.53 284.952 99.1443 286.756 100.314 288.187C101.483 289.617 103.128 290.579 104.949 290.894C105.916 291.055 105.593 289.471 104.949 289.256C103.774 288.989 102.716 288.354 101.928 287.443C101.141 286.531 100.666 285.392 100.572 284.191C100.479 282.99 100.773 281.791 101.411 280.769C102.049 279.747 102.997 278.956 104.116 278.512C104.895 278.136 107.769 277.357 107.903 279.022C107.903 280.043 106.453 281.144 105.674 281.493C104.681 281.893 103.604 282.033 102.542 281.902C101.48 281.77 100.469 281.371 99.6037 280.741C95.7627 278.055 96.7565 272.012 99.9797 269.218C100.914 268.386 102.055 267.82 103.283 267.58C104.053 267.446 104.841 267.467 105.603 267.642C106.364 267.818 107.082 268.143 107.715 268.6C109.112 270.024 106.372 271.286 105.352 271.448C104.102 271.639 102.824 271.5 101.645 271.045C95.897 268.869 95.4135 261.939 98.1532 257.212C98.4487 256.702 97.8846 255.547 97.3206 256.191L97.2937 256.272Z" fill="#E0E0E0"/>
<path d="M70.7233 509.991C67.6119 496.421 65.298 482.681 63.7934 468.841C62.4907 454.824 62.4907 440.715 63.7934 426.698C66.4794 398.844 73.6779 372.092 81.8433 345.473C91.0563 315.497 96.294 284.528 92.077 253.155C91.8621 251.436 90.1162 251.49 90.1968 253.155C91.7585 281.026 88.5519 308.958 80.7152 335.75C72.8721 362.341 64.5992 388.53 61.188 416.169C57.9538 442.898 58.9965 469.972 64.2769 496.373C69.6489 523.958 76.6593 550.979 78.3515 579.155C79.2608 594.526 79.0004 609.943 77.5726 625.274C76.0953 640.933 72.4155 656.19 70.7233 671.795C70.7233 672.655 71.6097 673.461 72.0394 672.413C77.4114 659.816 79.1036 645.553 80.6078 632.123C82.1202 618.641 82.7483 605.075 82.488 591.511C81.897 563.738 76.4982 536.985 70.7233 509.991Z" fill="#E0E0E0"/>
<path d="M81.416 254.311C82.195 250.093 93.1001 240.075 94.846 240.37C96.5919 240.666 102.313 253.505 101.48 258.017C101.237 258.884 100.768 259.672 100.122 260.299C99.4756 260.927 98.6747 261.372 97.8006 261.59C95.3972 262.297 92.8602 262.422 90.3989 261.955C87.9376 261.488 85.6227 260.442 83.6454 258.904C82.8986 258.396 82.3023 257.697 81.9195 256.879C81.5366 256.061 81.3812 255.155 81.4697 254.257L81.416 254.311Z" fill="#75C868"/>
<path opacity="0.3" d="M81.416 254.311C82.195 250.093 93.1001 240.075 94.846 240.37C96.5919 240.666 102.313 253.505 101.48 258.017C101.237 258.884 100.768 259.672 100.122 260.299C99.4756 260.927 98.6747 261.372 97.8006 261.59C95.3972 262.297 92.8602 262.422 90.3989 261.955C87.9376 261.488 85.6227 260.442 83.6454 258.904C82.8986 258.396 82.3023 257.697 81.9195 256.879C81.5366 256.061 81.3812 255.155 81.4697 254.257L81.416 254.311Z" fill="#272727"/>
<path d="M50.1771 153.425C44.1873 185.845 62.0223 231.48 93.8514 245.393C128.931 242.224 161.566 207.574 167.555 175.181C173.545 142.788 158.289 108.622 120.497 101.612C82.7046 94.6011 56.1937 121.005 50.1771 153.425Z" fill="#75C868"/>
<path opacity="0.1" d="M161.888 191.646C161.888 191.646 147.41 221.192 108.436 216.465C70.913 212.006 48.3506 165.699 54.3941 138.947C52.5203 143.624 51.1079 148.473 50.1771 153.424C44.1873 185.844 62.0223 231.479 93.8514 245.393C123.021 242.707 150.257 218.533 162.237 191.861L161.888 191.646Z" fill="#272727"/>
<path d="M1220.07 270.883C1221.32 272.193 1222.22 273.804 1222.66 275.562C1223.11 277.319 1223.1 279.162 1222.63 280.913C1222.16 282.664 1221.24 284.263 1219.97 285.555C1218.69 286.847 1217.11 287.789 1215.37 288.289C1212.68 288.96 1207.74 288.477 1208.25 284.636C1208.76 280.795 1214.51 280.096 1217.3 281.144C1218.88 281.764 1220.26 282.799 1221.3 284.139C1222.34 285.478 1223 287.074 1223.21 288.756C1223.42 290.439 1223.17 292.147 1222.49 293.7C1221.81 295.254 1220.72 296.595 1219.34 297.582C1218.07 298.456 1216.57 298.946 1215.03 298.993C1213.49 299.041 1211.96 298.644 1210.64 297.851C1209.99 297.49 1209.48 296.932 1209.18 296.259C1208.87 295.586 1208.79 294.833 1208.94 294.11C1209.09 293.387 1209.47 292.732 1210.03 292.24C1210.58 291.749 1211.27 291.447 1212.01 291.378C1213.91 291.193 1215.82 291.753 1217.32 292.939C1218.82 294.126 1219.8 295.847 1220.07 297.743C1220.19 299.58 1219.65 301.399 1218.56 302.876C1217.46 304.353 1215.87 305.39 1214.08 305.802C1213.14 305.99 1213.38 304.405 1214.08 304.163C1215.21 303.814 1216.21 303.117 1216.93 302.17C1217.64 301.223 1218.05 300.075 1218.08 298.888C1218.11 297.7 1217.76 296.533 1217.09 295.552C1216.42 294.571 1215.46 293.825 1214.34 293.419C1213.54 293.124 1210.64 292.479 1210.61 294.144C1210.61 295.165 1212.14 296.186 1212.95 296.481C1213.96 296.835 1215.05 296.924 1216.11 296.741C1217.16 296.557 1218.16 296.108 1218.99 295.434C1222.7 292.506 1221.38 286.57 1218 283.937C1217.03 283.154 1215.87 282.652 1214.64 282.487C1213.86 282.385 1213.07 282.444 1212.32 282.661C1211.57 282.878 1210.87 283.249 1210.26 283.749C1208.95 285.227 1211.71 286.435 1212.76 286.435C1214.03 286.578 1215.31 286.373 1216.47 285.845C1222.08 283.373 1222.19 276.444 1219.15 271.877C1218.83 271.367 1219.34 270.212 1219.93 270.803L1220.07 270.883Z" fill="#E0E0E0"/>
<path d="M1248.83 519.876C1251.94 506.304 1254.26 492.565 1255.79 478.726C1257.09 464.709 1257.09 450.601 1255.79 436.583C1253.1 408.729 1245.93 381.977 1237.74 355.359C1228.52 325.383 1223.29 294.413 1227.5 263.041C1227.75 261.322 1229.49 261.375 1229.38 263.041C1227.88 290.872 1231.13 318.756 1238.97 345.501C1246.84 372.092 1255.09 398.281 1258.5 425.92C1261.74 452.647 1260.71 479.721 1255.44 506.124C1250.07 533.709 1243.06 560.73 1241.36 588.906C1240.44 604.276 1240.7 619.695 1242.14 635.025C1243.59 650.684 1247.3 665.941 1248.96 681.546C1248.96 682.406 1248.11 683.212 1247.65 682.164C1242.28 669.567 1240.61 655.304 1239.08 641.874C1237.56 628.393 1236.94 614.825 1237.23 601.262C1237.68 573.623 1243.06 546.87 1248.83 519.876Z" fill="#E0E0E0"/>
<path d="M1235.83 268.118C1234.84 263.928 1223.4 254.5 1221.76 254.903C1220.12 255.306 1214.96 268.333 1216.01 272.845C1216.3 273.701 1216.81 274.465 1217.49 275.06C1218.17 275.654 1218.99 276.058 1219.88 276.229C1222.31 276.814 1224.85 276.814 1227.28 276.231C1229.71 275.647 1231.97 274.496 1233.87 272.872C1234.59 272.328 1235.16 271.6 1235.5 270.763C1235.85 269.927 1235.96 269.013 1235.83 268.118Z" fill="#75C868"/>
<path opacity="0.3" d="M1235.83 268.118C1234.84 263.928 1223.4 254.5 1221.76 254.903C1220.12 255.306 1214.96 268.333 1216.01 272.845C1216.3 273.701 1216.81 274.465 1217.49 275.06C1218.17 275.654 1218.99 276.058 1219.88 276.229C1222.31 276.814 1224.85 276.814 1227.28 276.231C1229.71 275.647 1231.97 274.496 1233.87 272.872C1234.59 272.328 1235.16 271.6 1235.5 270.763C1235.85 269.927 1235.96 269.013 1235.83 268.118Z" fill="#272727"/>
<path d="M1261.89 165.78C1269.52 197.851 1254.02 244.319 1222.94 259.79C1187.65 258.474 1153.4 225.625 1145.75 193.393C1138.09 161.161 1151.63 126.457 1189.05 117.54C1226.46 108.622 1254.37 133.71 1261.89 165.78Z" fill="#75C868"/>
<path opacity="0.1" d="M1152.3 209.509C1152.3 209.509 1168.28 238.222 1206.96 231.615C1244.22 225.222 1264.44 177.895 1256.97 151.411C1259.12 155.981 1260.78 160.761 1261.94 165.673C1269.57 197.744 1254.07 244.212 1223 259.683C1193.75 258.555 1165.22 235.724 1151.95 209.697L1152.3 209.509Z" fill="#272727"/>
<path d="M1049.53 300.833C1050.06 302.055 1050.27 303.393 1050.12 304.717C1049.98 306.041 1049.5 307.306 1048.72 308.388C1047.95 309.47 1046.9 310.333 1045.69 310.891C1044.48 311.45 1043.15 311.686 1041.82 311.577C1039.73 311.335 1036.29 309.401 1038.14 306.876C1038.59 306.423 1039.15 306.085 1039.75 305.893C1040.36 305.701 1041.01 305.661 1041.64 305.775C1043 305.86 1044.29 306.443 1045.26 307.414C1046.12 308.3 1046.72 309.399 1047.01 310.596C1047.3 311.793 1047.26 313.046 1046.91 314.225C1046.55 315.404 1045.89 316.467 1044.99 317.305C1044.08 318.142 1042.97 318.724 1041.77 318.99C1040.62 319.22 1039.44 319.084 1038.37 318.602C1037.31 318.12 1036.42 317.317 1035.83 316.304C1035.65 315.842 1035.6 315.338 1035.69 314.849C1035.78 314.36 1036 313.906 1036.33 313.535C1036.67 313.165 1037.09 312.894 1037.57 312.752C1038.05 312.61 1038.55 312.603 1039.03 312.732C1040.31 313.164 1041.38 314.061 1042.03 315.246C1042.67 316.43 1042.85 317.815 1042.52 319.124C1042.15 320.424 1041.32 321.544 1040.18 322.279C1039.05 323.015 1037.68 323.316 1036.34 323.127C1035.7 322.992 1036.35 321.918 1036.75 321.945C1037.6 322.04 1038.47 321.861 1039.22 321.433C1039.96 321.005 1040.55 320.349 1040.9 319.563C1041.25 318.776 1041.34 317.898 1041.16 317.056C1040.98 316.214 1040.53 315.452 1039.89 314.881C1039.33 314.343 1038.23 313.618 1037.42 313.967C1036.61 314.317 1036.96 314.129 1037.02 314.612C1037.04 314.805 1037.08 314.995 1037.15 315.176C1037.31 315.629 1037.57 316.036 1037.93 316.358C1038.51 316.874 1039.22 317.237 1039.98 317.415C1040.74 317.593 1041.53 317.581 1042.28 317.379C1045.83 316.439 1046.47 311.684 1044.56 308.998C1044.05 308.219 1043.32 307.615 1042.45 307.269C1041.59 306.923 1040.64 306.852 1039.73 307.064C1038.36 307.494 1039.46 308.864 1040.19 309.347C1041.04 309.892 1042.04 310.172 1043.06 310.153C1047.63 310.153 1049.67 305.345 1048.81 301.37C1048.81 301.048 1049.29 300.269 1049.53 300.806V300.833Z" fill="#E0E0E0"/>
<path d="M1052.25 297.636C1054.8 305.103 1057.06 312.651 1059.88 320.037C1062.83 327.73 1066.23 335.245 1070.06 342.546C1077.79 356.888 1086.87 370.46 1097.18 383.078C1102.56 389.82 1107.93 396.857 1109.84 405.398C1110.02 406.15 1109.16 407.413 1108.68 406.258C1102.4 391.592 1090.87 380.392 1082.06 367.338C1072.91 353.754 1065.3 339.196 1059.37 323.932C1055.91 315.458 1053.27 306.67 1051.5 297.69C1051.36 297.018 1052.06 297.126 1052.25 297.636Z" fill="#E0E0E0"/>
<path d="M1059.63 298.147C1058.72 295.138 1049.99 288.773 1048.89 289.122C1047.78 289.471 1044.53 299.248 1045.5 302.552C1045.75 303.161 1046.15 303.694 1046.67 304.096C1047.19 304.497 1047.8 304.752 1048.46 304.835C1050.25 305.156 1052.1 305.048 1053.84 304.521C1055.59 303.993 1057.18 303.061 1058.5 301.8C1058.99 301.363 1059.36 300.807 1059.57 300.185C1059.78 299.564 1059.83 298.899 1059.71 298.254L1059.63 298.147Z" fill="#75C868"/>
<path d="M1074.11 222.644C1081.07 245.636 1071.83 280.151 1049.94 292.802C1024.18 293.339 997.827 270.857 990.844 247.865C983.86 224.873 992.213 198.899 1019.02 190.761C1045.83 182.622 1067.13 199.624 1074.11 222.644Z" fill="#75C868"/>
<path opacity="0.3" d="M1074.11 222.644C1081.07 245.636 1071.83 280.151 1049.94 292.802C1024.18 293.339 997.827 270.857 990.844 247.865C983.86 224.873 992.213 198.899 1019.02 190.761C1045.83 182.622 1067.13 199.624 1074.11 222.644Z" fill="white"/>
<path opacity="0.3" d="M1050.98 214.881C1053.4 214.021 1056.03 214.048 1058.47 213.243C1060.49 212.598 1059.82 211.685 1058.47 210.557C1057.14 209.483 1055.62 208.664 1053.99 208.139C1052.22 207.495 1052.16 205.695 1052.16 204.083C1052.24 202.876 1052.24 201.665 1052.16 200.457C1051.92 198.443 1050.93 198.658 1049.48 199.571C1047.49 200.753 1045.45 203.976 1042.84 203.089C1041.26 202.579 1039.67 202.015 1038.06 201.558C1036.97 201.025 1035.8 200.68 1034.6 200.538C1032.69 200.806 1034.81 203.815 1035.27 204.54C1035.99 205.722 1037.42 207.226 1037.12 208.596C1036.72 210.53 1034.43 212.061 1033.17 213.538C1032.59 214.166 1032.14 214.907 1031.86 215.714C1031.69 218.212 1037.55 216.358 1038.65 216.063C1039.75 215.767 1040.96 214.935 1041.82 215.848C1042.82 217.147 1043.72 218.521 1044.51 219.958C1045.21 221.032 1048.56 227.102 1049.56 222.993C1049.83 221.574 1049.99 220.138 1050.04 218.695C1049.99 217.567 1049.48 215.526 1050.98 214.881ZM1019.85 208.838C1020.23 207.28 1019.37 207.36 1018.13 207.79C1016.89 208.231 1015.74 208.896 1014.75 209.751C1013.62 210.664 1012.44 209.993 1011.36 209.348C1010.61 208.808 1009.82 208.323 1009 207.897C1007.57 207.28 1007.31 207.897 1007.31 209.375C1007.31 210.852 1008.6 213.753 1006.98 215.123C1005.99 215.955 1005 216.761 1004.06 217.648C1003.52 218.131 1002.31 218.803 1002.01 219.501C1001.42 220.871 1004.24 220.683 1004.92 220.656C1005.59 220.629 1007.44 220.28 1008.3 221.086C1009.16 221.891 1009.48 224.282 1009.99 225.625C1010.16 226.255 1010.46 226.841 1010.88 227.344C1012.46 228.445 1013.56 223.879 1013.83 223.046C1014.1 222.214 1013.99 221.059 1014.93 220.871C1016.18 220.762 1017.43 220.762 1018.67 220.871C1019.63 220.871 1024.98 221.059 1022.67 218.776C1021.33 217.433 1018 216.278 1018.67 213.914C1018.64 213.984 1018.64 214.059 1018.67 214.129C1018.96 212.437 1019.45 210.691 1019.85 208.945V208.838ZM1032.07 275.477C1031.48 276.874 1034.3 276.659 1034.94 276.659C1036.02 276.659 1037.47 276.256 1038.36 277.062C1039.24 277.868 1039.51 280.258 1040.02 281.601C1040.19 282.237 1040.5 282.826 1040.93 283.32C1042.49 284.422 1043.62 279.855 1043.86 279.023C1044.1 278.19 1044.02 277.062 1044.99 276.847C1046.22 276.753 1047.46 276.753 1048.7 276.847C1049.69 276.847 1055.01 277.035 1052.73 274.752C1051.36 273.409 1048.03 272.281 1048.7 269.89C1048.67 269.968 1048.67 270.055 1048.7 270.132C1049.1 268.359 1049.56 266.64 1049.99 264.76C1050.42 262.88 1049.48 263.256 1048.24 263.686C1046.98 264.21 1045.83 264.966 1044.86 265.915C1043.73 266.801 1042.52 266.13 1041.47 265.485C1040.71 264.951 1039.91 264.467 1039.08 264.035C1037.66 263.417 1037.42 264.035 1037.42 265.512C1037.42 266.989 1038.68 269.917 1037.07 271.26C1036.1 272.093 1035.11 272.899 1034.17 273.785C1033.57 274.242 1032.37 274.886 1032.07 275.585V275.477ZM1048.83 244.508C1048.56 245.287 1047.89 246.227 1048 247.194C1048.11 248.161 1051.33 246.495 1051.89 246.227C1052.56 245.776 1053.32 245.483 1054.12 245.367C1054.79 245.367 1055.3 246.227 1055.76 246.656C1056.22 247.086 1059.87 250.39 1059.58 247.731C1059.41 246.173 1057.86 243.756 1059.58 242.574H1059.41C1060.26 241.849 1061.16 241.185 1062.1 240.586C1062.48 240.291 1063.77 239.673 1063.39 239.001C1063.01 238.33 1061.35 238.357 1060.7 238.249C1059.87 238.151 1059.06 237.896 1058.31 237.497C1057.85 237.059 1057.53 236.5 1057.37 235.886C1057.15 235.155 1056.89 234.438 1056.59 233.737C1056 232.635 1055.47 232.958 1054.77 233.737C1054.3 234.422 1053.87 235.14 1053.51 235.886C1053.33 236.224 1053.06 236.51 1052.73 236.712C1052.41 236.915 1052.04 237.028 1051.65 237.041C1051.06 237.041 1050.52 237.39 1049.93 237.443C1049.34 237.497 1047.89 237.443 1047.25 237.954C1046.6 238.464 1048.13 239.995 1048.67 240.64C1049.21 241.284 1049.93 241.607 1049.83 242.52C1049.56 243.246 1049.22 243.947 1048.83 244.615V244.508ZM1006.02 262.504C1006.45 264.277 1011.2 260.838 1012.06 260.301C1013.06 259.485 1014.22 258.89 1015.47 258.555C1016.52 258.555 1017.49 259.764 1018.16 260.328C1018.83 260.892 1025.33 265.7 1024.42 261.403C1023.88 258.985 1021.03 255.386 1023.42 253.345L1023.15 253.533C1024.33 252.24 1025.6 251.046 1026.97 249.96C1027.53 249.396 1029.47 248.214 1028.77 247.274C1028.07 246.334 1025.41 246.603 1024.31 246.549C1022.96 246.51 1021.64 246.237 1020.39 245.743C1019.59 245.108 1018.98 244.274 1018.61 243.326C1018.15 242.212 1017.62 241.126 1017.03 240.076C1015.93 238.384 1015.12 239.001 1014.16 240.505C1013.53 241.671 1012.97 242.873 1012.49 244.105C1012.28 244.675 1011.92 245.178 1011.45 245.561C1010.97 245.944 1010.41 246.193 1009.8 246.28C1008.89 246.495 1008.03 247.006 1007.12 247.167C1005.72 247.435 1003.89 247.355 1002.79 248.483C1001.21 250.094 1004.54 251.545 1005.48 252.351C1006.42 253.157 1007.66 253.694 1007.63 255.037C1007.48 256.142 1007.23 257.23 1006.88 258.287C1006.63 259.684 1005.72 261.268 1006.02 262.611V262.504Z" fill="white"/>
<path opacity="0.4" d="M996.243 259.334C996.243 259.334 1009.11 279.533 1036.96 273.033C1063.82 266.748 1076.47 231.373 1069.87 212.464C1071.63 215.701 1073.05 219.112 1074.11 222.644C1081.07 245.636 1071.83 280.151 1049.94 292.802C1028.58 293.259 1006.96 277.895 996.055 259.522L996.243 259.334Z" fill="#75C868"/>
<path d="M1042.43 101.557C1042.43 101.557 1041.65 115.497 1052.1 123.555L1063.03 120.252C1063.03 120.252 1055.73 116.733 1052.1 101.691L1042.43 101.557Z" fill="#455A64"/>
<path d="M1008.81 412.033C1008.81 412.033 1021.43 405.829 1023.15 392.882L1014.88 384.985C1014.88 384.985 1015.42 393.043 1004.13 403.599L1008.81 412.033Z" fill="#455A64"/>
<path d="M1309.91 325.973C1309.91 325.973 1303.54 338.544 1290.6 340.075L1282.78 331.722C1282.78 331.722 1290.84 332.339 1301.58 321.139L1309.91 325.973Z" fill="#455A64"/>
<path d="M335.99 98.1204C335.99 98.1204 336.769 112.168 326.321 119.984L315.389 116.681C315.389 116.681 322.695 113.162 326.321 98.1204H335.99Z" fill="#455A64"/>
<path d="M300.535 337.684C300.535 337.684 301.314 351.731 290.865 359.548L279.906 356.217C279.906 356.217 287.239 352.725 290.865 337.684H300.535Z" fill="#455A64"/>
<path d="M54.5755 99.3824C54.5755 99.3824 68.5159 97.4485 74.1833 85.7107L68.8113 75.6113C68.8113 75.6113 66.77 83.4545 52.6953 89.9009L54.5755 99.3824Z" fill="#455A64"/>
<path d="M464.679 198.979C464.679 198.979 456.003 210.072 460.113 222.455L470.857 225.973C468.56 218.653 468.635 210.794 471.072 203.518L464.679 198.979Z" fill="#37474F"/>
<path d="M778.367 142.734C778.367 142.734 775.896 156.593 763.916 161.777L754.059 156.029C761.037 152.86 766.837 147.567 770.631 140.907L778.367 142.734Z" fill="#37474F"/>
<path d="M923.142 313.856C923.142 313.856 909.524 317.401 899.801 308.726L900.875 297.364C906.68 302.367 913.92 305.404 921.557 306.04L923.142 313.856Z" fill="#37474F"/>
<path d="M1172.6 289.067C1172.6 289.067 1158.63 290.813 1150.12 281.009L1152.67 269.862C1152.67 269.862 1156.67 276.926 1171.93 279.505L1172.6 289.067Z" fill="#75C868"/>
<path d="M916.326 119.259C916.326 119.259 902.358 120.978 893.844 111.201L896.53 100.054C896.53 100.054 900.532 107.118 915.788 109.723L916.326 119.259Z" fill="#75C868"/>
<path d="M151.141 283.184C151.141 283.184 165.108 284.93 173.622 275.126L170.936 263.979C170.936 263.979 166.934 271.044 151.678 273.622L151.141 283.184Z" fill="#75C868"/>
<path d="M416.596 104.915C416.596 104.915 430.563 106.634 439.078 96.8569L436.392 85.71C436.392 85.71 432.389 92.7473 417.133 95.3527L416.596 104.915Z" fill="#75C868"/>
<path d="M387.559 449.743C387.559 449.743 401.526 451.463 410.04 441.685L407.489 430.565C407.489 430.565 403.487 437.603 388.23 440.208L387.559 449.743Z" fill="#75C868"/>
<path d="M1248.99 87.268C1254.01 79.21 1264.24 72.3607 1274.88 73.838C1282.94 74.9661 1293.55 83.0778 1289.52 91.7804C1287.93 95.1917 1279.26 101.96 1274.64 98.1731C1274.03 97.6289 1273.55 96.9661 1273.21 96.2259C1272.87 95.4857 1272.69 94.6838 1272.67 93.8702C1272.66 93.0566 1272.81 92.2486 1273.12 91.4963C1273.43 90.7441 1273.89 90.0637 1274.48 89.4973C1279.85 83.3464 1292.31 87.2142 1298.09 94.8693C1306.71 106.392 1299.24 118.238 1291.96 124.039C1291.48 124.442 1292.5 125.49 1292.96 125.194C1306.65 117.002 1309.07 91.4044 1286.51 85.2535C1280.41 83.5881 1273.56 84.4208 1270.96 89.954C1270.07 91.6361 1269.86 93.5904 1270.36 95.4241C1270.86 97.2578 1272.03 98.8349 1273.64 99.8384C1279.79 103.733 1288.39 98.5492 1291.1 94.1978C1294.3 89.1213 1292.23 82.272 1286.67 77.5984C1272.41 65.5919 1254.28 74.9124 1248.26 86.489C1248.1 86.8382 1248.85 87.5903 1249.07 87.2142L1248.99 87.268Z" fill="#75C868"/>
<path d="M921.751 231.855C908.159 233.198 889.814 210.529 903.083 199.623C910.55 193.58 926.666 196.078 926.37 207.52C926.335 207.83 926.201 208.119 925.988 208.347C925.775 208.574 925.495 208.727 925.189 208.783C914.445 211.227 903.942 206.634 905.742 194.171C906.729 188.853 909.485 184.026 913.561 180.471C917.637 176.917 922.795 174.844 928.197 174.59C928.842 174.59 928.6 175.718 928.197 175.825C918.903 177.786 910.147 183.561 908.321 193.499C907.906 195.254 907.871 197.078 908.218 198.847C908.566 200.617 909.287 202.292 910.335 203.76C911.574 205.314 913.262 206.449 915.17 207.01C916.755 207.52 922.503 208.433 923.765 207.01C926.29 204.324 919.467 200.053 917.426 199.355C915.423 198.624 913.282 198.349 911.158 198.549C909.035 198.749 906.983 199.418 905.151 200.51C899.51 204.431 900.907 211.872 903.647 217.163C907.327 224.254 913.773 230.056 922.073 230.324C922.852 230.324 922.449 231.748 921.858 231.828L921.751 231.855Z" fill="#75C868"/>
<path d="M921.751 231.855C908.159 233.198 889.814 210.529 903.083 199.623C910.55 193.58 926.666 196.078 926.37 207.52C926.335 207.83 926.201 208.119 925.988 208.347C925.775 208.574 925.495 208.727 925.189 208.783C914.445 211.227 903.942 206.634 905.742 194.171C906.729 188.853 909.485 184.026 913.561 180.471C917.637 176.917 922.795 174.844 928.197 174.59C928.842 174.59 928.6 175.718 928.197 175.825C918.903 177.786 910.147 183.561 908.321 193.499C907.906 195.254 907.871 197.078 908.218 198.847C908.566 200.617 909.287 202.292 910.335 203.76C911.574 205.314 913.262 206.449 915.17 207.01C916.755 207.52 922.503 208.433 923.765 207.01C926.29 204.324 919.467 200.053 917.426 199.355C915.423 198.624 913.282 198.349 911.158 198.549C909.035 198.749 906.983 199.418 905.151 200.51C899.51 204.431 900.907 211.872 903.647 217.163C907.327 224.254 913.773 230.056 922.073 230.324C922.852 230.324 922.449 231.748 921.858 231.828L921.751 231.855Z" fill="#75C868"/>
<path d="M234.698 99.6236C227.043 97.3942 216.513 97.9851 210.067 103.169C205.125 107.144 202.304 115.82 209.61 118.802C212.484 119.957 221.939 119.957 223.04 116.116C223.846 113.43 220.918 111.791 218.582 111.415C211.705 110.368 205.152 117.62 205.42 124.093C205.662 133.789 216.97 137.013 224.974 137.093C225.485 137.093 225.35 138.06 224.974 138.114C211.383 139.43 196.18 126.833 208.294 114.182C209.821 112.309 211.865 110.925 214.172 110.204C216.478 109.483 218.946 109.456 221.268 110.126C223.954 111.2 226.022 113.591 224.706 116.492C222.584 121.085 213.962 121.864 209.879 120.709C208.79 120.417 207.773 119.908 206.888 119.21C206.003 118.513 205.269 117.643 204.731 116.652C204.193 115.662 203.863 114.573 203.759 113.451C203.656 112.329 203.783 111.197 204.131 110.126C207.462 97.8508 224.652 95.2991 234.859 98.9789C235.154 98.9789 235.047 99.8116 234.671 99.7041L234.698 99.6236Z" fill="#75C868"/>
<path d="M37.252 272.415C48.3183 271.287 64.5686 284.851 58.74 296.589C53.7171 306.5 37.3863 311.416 34.754 297.583C34.7179 297.428 34.7238 297.267 34.771 297.116C34.8182 296.965 34.9051 296.829 35.0226 296.723C44.343 290.008 52.6965 300.645 53.8246 309.508C55.5168 323.234 43.0806 328.31 31.3428 325.436C30.9399 325.436 30.7518 324.443 31.3428 324.496C40.2334 325.141 51.8907 324.174 52.5353 312.92C52.8576 306.903 49.527 298.55 43.2955 296.589C41.6489 295.93 39.8118 295.93 38.1652 296.589C34.8883 298.415 37.0102 301.961 39.9111 303.438C44.531 305.936 50.6551 302.981 54.12 299.839C66.2608 289.095 48.9629 274.617 37.6011 273.247C37.2788 273.247 37.0371 272.469 37.4668 272.442L37.252 272.415Z" fill="#75C868"/>
<path d="M972.092 296.293C984.731 310.616 1002.03 320.006 1020.92 322.803C1039.82 325.6 1059.1 321.624 1075.34 311.576L1097.66 323.153C1098.5 323.59 1099.46 323.761 1100.4 323.644C1101.33 323.528 1102.22 323.128 1102.92 322.5C1103.63 321.871 1104.13 321.042 1104.36 320.122C1104.58 319.203 1104.53 318.236 1104.19 317.351L1095.54 293.795C1105.22 281.805 1111.27 267.299 1112.98 251.986C1114.69 236.672 1111.99 221.189 1105.19 207.36C1098.4 193.531 1087.79 181.931 1074.62 173.928C1061.46 165.924 1046.28 161.85 1030.87 162.185C1015.47 162.52 1000.48 167.25 987.673 175.818C974.866 184.386 964.775 196.435 958.587 210.547C952.399 224.658 950.373 240.244 952.746 255.469C955.12 270.694 961.795 284.923 971.985 296.481L972.092 296.293ZM983.4 186.892C997.582 174.388 1015.99 167.751 1034.89 168.332L1043.41 169.084C1061.95 171.723 1078.82 181.257 1090.65 195.783C1102.48 210.31 1108.4 228.762 1107.23 247.459C1106.05 266.155 1097.88 283.723 1084.32 296.658C1070.77 309.592 1052.84 316.943 1034.11 317.244L1025.57 316.921C1011.11 315.542 997.364 309.963 986.032 300.871C974.7 291.78 966.274 279.572 961.793 265.753C957.311 251.933 956.968 237.104 960.808 223.092C964.647 209.08 972.5 196.497 983.4 186.892Z" fill="#455A64"/>
<path d="M976.818 292.076C989.31 306.27 1006.75 315.166 1025.57 316.948L1034.11 317.271C1052.73 316.811 1070.5 309.392 1083.91 296.476C1097.33 283.561 1105.42 266.087 1106.58 247.502C1107.75 228.916 1101.91 210.568 1090.21 196.077C1078.52 181.585 1061.82 172.002 1043.4 169.218L1034.89 168.466C1020.37 168.03 1006.04 171.85 993.66 179.456C981.282 187.062 971.399 198.121 965.228 211.273C959.056 224.424 956.865 239.093 958.924 253.474C960.984 267.855 967.204 281.32 976.818 292.21V292.076Z" fill="white"/>
<path d="M1061.35 207.736L1032.93 241.043L1004.49 207.736H1061.35Z" fill="#75C868"/>
<path opacity="0.3" d="M1061.35 207.736L1032.93 241.043L1004.49 207.736H1061.35Z" fill="white"/>
<path opacity="0.3" d="M1045.58 207.736L1032.93 241.043L1020.26 207.736H1045.58Z" fill="white"/>
<path d="M1020.25 192.882H1045.58L1061.35 207.735H1004.49L1020.25 192.882Z" fill="#75C868"/>
<path opacity="0.5" d="M1020.25 192.882H1045.58L1061.35 207.735H1004.49L1020.25 192.882Z" fill="white"/>
<path opacity="0.15" d="M1045.58 192.882H1020.26V207.709H1045.58V192.882Z" fill="white"/>
<path opacity="0.4" d="M1020.26 192.882L1032.93 207.735L1045.58 192.882H1020.26Z" fill="white"/>
<path opacity="0.3" d="M1020.26 207.735L1032.93 192.882L1045.58 207.735H1020.26Z" fill="white"/>
<path d="M1022.08 195.783L1022.88 187.833L1023.72 195.783L1031.64 196.589L1023.72 197.422L1022.88 205.345L1022.08 197.422L1014.13 196.589L1022.08 195.783Z" fill="white"/>
<path d="M1022.24 196.589L1019.37 193.071L1022.89 195.945L1026.43 193.071L1023.56 196.589L1026.43 200.135L1022.89 197.261L1019.37 200.135L1022.24 196.589Z" fill="white"/>
<path d="M1015.36 203.224L1013.62 201.075L1015.77 202.794L1017.91 201.075L1016.17 203.224L1017.91 205.345L1015.77 203.626L1013.62 205.345L1015.36 203.224Z" fill="white"/>
<path d="M1015.61 203.385L1014.03 203.223L1015.61 203.035L1015.77 201.478L1015.93 203.035L1017.49 203.223L1015.93 203.385L1015.77 204.942L1015.61 203.385Z" fill="white"/>
<path d="M1044.32 239.055C1047.63 235.644 1049.66 231.194 1050.07 226.458C1050.07 225.826 1049.83 225.217 1049.41 224.753C1048.98 224.288 1048.39 224.004 1047.76 223.956C1047.13 223.908 1046.5 224.101 1046.01 224.496C1045.52 224.89 1045.19 225.457 1045.1 226.082C1045.1 226.485 1044.32 234.274 1038.25 237.256C1037.34 237.094 1036.37 236.96 1035.4 236.88V226.136C1035.44 225.788 1035.4 225.436 1035.29 225.103C1035.19 224.771 1035.01 224.464 1034.77 224.204C1034.54 223.945 1034.25 223.737 1033.93 223.595C1033.61 223.452 1033.27 223.379 1032.92 223.379C1032.57 223.379 1032.22 223.452 1031.9 223.595C1031.58 223.737 1031.3 223.945 1031.06 224.204C1030.83 224.464 1030.65 224.771 1030.54 225.103C1030.44 225.436 1030.4 225.788 1030.43 226.136V236.718C1029.44 236.718 1028.45 236.906 1027.48 237.068C1021.52 234.059 1020.79 226.324 1020.74 225.948C1020.68 225.287 1020.37 224.675 1019.87 224.242C1019.37 223.81 1018.71 223.593 1018.05 223.638C1017.39 223.692 1016.78 224.006 1016.36 224.509C1015.93 225.013 1015.72 225.665 1015.77 226.324C1016.17 231 1018.16 235.397 1021.41 238.787C1014.85 241.406 1009.4 246.224 1006 252.418C1002.6 258.611 1001.46 265.794 1002.77 272.737C1004.08 279.679 1007.77 285.949 1013.2 290.473C1018.62 294.997 1025.46 297.493 1032.52 297.535C1039.59 297.576 1046.45 295.16 1051.93 290.7C1057.41 286.24 1061.17 280.014 1062.56 273.087C1063.95 266.161 1062.9 258.965 1059.57 252.732C1056.24 246.499 1050.85 241.617 1044.32 238.921V239.055ZM1032.72 291.029C1026.51 290.977 1020.56 288.503 1016.14 284.135C1011.73 279.766 1009.19 273.846 1009.07 267.635C1008.95 261.424 1011.26 255.412 1015.51 250.877C1019.75 246.342 1025.6 243.643 1031.8 243.353C1032.18 243.353 1032.53 243.353 1032.93 243.353H1033.85C1040.16 243.502 1046.16 246.156 1050.53 250.73C1054.89 255.304 1057.26 261.423 1057.11 267.742C1056.96 274.06 1054.3 280.061 1049.73 284.423C1045.16 288.785 1039.04 291.152 1032.72 291.002V291.029Z" fill="#E0E0E0"/>
<path opacity="0.05" d="M1044.32 239.055C1047.63 235.644 1049.66 231.194 1050.07 226.458C1050.07 225.826 1049.83 225.217 1049.41 224.753C1048.98 224.288 1048.39 224.004 1047.76 223.956C1047.13 223.908 1046.5 224.101 1046.01 224.496C1045.52 224.89 1045.19 225.457 1045.1 226.082C1045.1 226.485 1044.32 234.274 1038.25 237.256C1037.34 237.094 1036.37 236.96 1035.4 236.88V226.136C1035.44 225.788 1035.4 225.436 1035.29 225.103C1035.19 224.771 1035.01 224.464 1034.77 224.204C1034.54 223.945 1034.25 223.737 1033.93 223.595C1033.61 223.452 1033.27 223.379 1032.92 223.379C1032.57 223.379 1032.22 223.452 1031.9 223.595C1031.58 223.737 1031.3 223.945 1031.06 224.204C1030.83 224.464 1030.65 224.771 1030.54 225.103C1030.44 225.436 1030.4 225.788 1030.43 226.136V236.718C1029.44 236.718 1028.45 236.906 1027.48 237.068C1021.52 234.059 1020.79 226.324 1020.74 225.948C1020.68 225.287 1020.37 224.675 1019.87 224.242C1019.37 223.81 1018.71 223.593 1018.05 223.638C1017.39 223.692 1016.78 224.006 1016.36 224.509C1015.93 225.013 1015.72 225.665 1015.77 226.324C1016.17 231 1018.16 235.397 1021.41 238.787C1014.85 241.406 1009.4 246.224 1006 252.418C1002.6 258.611 1001.46 265.794 1002.77 272.737C1004.08 279.679 1007.77 285.949 1013.2 290.473C1018.62 294.997 1025.46 297.493 1032.52 297.535C1039.59 297.576 1046.45 295.16 1051.93 290.7C1057.41 286.24 1061.17 280.014 1062.56 273.087C1063.95 266.161 1062.9 258.965 1059.57 252.732C1056.24 246.499 1050.85 241.617 1044.32 238.921V239.055ZM1032.72 291.029C1026.51 290.977 1020.56 288.503 1016.14 284.135C1011.73 279.766 1009.19 273.846 1009.07 267.635C1008.95 261.424 1011.26 255.412 1015.51 250.877C1019.75 246.342 1025.6 243.643 1031.8 243.353C1032.18 243.353 1032.53 243.353 1032.93 243.353H1033.85C1040.16 243.502 1046.16 246.156 1050.53 250.73C1054.89 255.304 1057.26 261.423 1057.11 267.742C1056.96 274.06 1054.3 280.061 1049.73 284.423C1045.16 288.785 1039.04 291.152 1032.72 291.002V291.029Z" fill="#272727"/>
</g>
<defs>
<clipPath id="clip0_12985_114360">
<rect width="1343" height="431" fill="white"/>
</clipPath>
</defs>
</svg>
