<svg width="191" height="187" viewBox="0 0 191 187" fill="none" xmlns="http://www.w3.org/2000/svg">
<g filter="url(#filter0_d_12621_110293)">
<rect width="139.932" height="139.932" transform="translate(61.0762) rotate(22.7336)" fill="#101010"/>
<g clip-path="url(#clip0_12621_110293)">
<path d="M89.3042 89.5663C90.8497 91.1033 93.0936 91.666 95.1597 91.0345L99.4994 89.705L101.589 93.7337C102.228 94.9638 103.27 95.9022 104.512 96.4236C105.203 96.714 105.957 96.8748 106.738 96.8854C108.839 96.9122 110.687 95.8505 111.681 94.0453C111.791 93.845 111.893 93.6368 111.983 93.4218C112.073 93.2069 112.151 92.9891 112.217 92.7689C112.809 90.796 112.273 88.7337 110.783 87.2523C109.235 85.7156 106.993 85.1508 104.927 85.7841L100.587 87.1141L98.4975 83.0853C97.5019 81.1694 95.5288 79.9617 93.3488 79.9336C91.2477 79.9068 89.3997 80.9685 88.4056 82.7737C88.2954 82.9741 88.1939 83.1822 88.1038 83.3968C88.0136 83.6118 87.9362 83.8296 87.8694 84.0497C87.2777 86.0228 87.814 88.0844 89.3042 89.5663L89.3042 89.5663ZM105.559 87.8483C106.862 87.4504 108.279 87.8093 109.262 88.7836C110.178 89.6936 110.51 90.9517 110.151 92.1481C110.106 92.2956 110.053 92.4424 109.993 92.5863C109.932 92.7306 109.864 92.8703 109.791 93.0058C109.188 94.0994 108.057 94.7439 106.766 94.7284C105.382 94.7102 104.134 93.9487 103.506 92.7404L101.597 89.0626L105.559 87.8483ZM90.2953 83.8125C90.8986 82.7189 92.0292 82.0744 93.3205 82.0899C93.8175 82.0958 94.298 82.1983 94.7378 82.3829C95.5218 82.7121 96.1792 83.3042 96.5811 84.0779L98.4894 87.7558L94.5276 88.9693C93.2258 89.3684 91.8076 89.0118 90.8252 88.034C89.9094 87.1239 89.5771 85.8658 89.9357 84.6695C89.9809 84.5233 90.0327 84.3774 90.0937 84.2322C90.1547 84.0869 90.2223 83.9481 90.2954 83.8127L90.2953 83.8125Z" fill="#FFD568"/>
<path d="M126.404 93.3374L121.168 95.4776L117.6 93.9796L119.271 89.9998C120.422 87.2566 119.128 84.0881 116.384 82.9364L113.399 81.6833L113.644 81.1001L124.532 76.6511C124.797 76.544 125.007 76.3351 125.119 76.0703L125.613 74.8924C126.941 74.9652 128.236 74.2212 128.779 72.9259C129.47 71.2802 128.693 69.3788 127.048 68.6879C125.402 67.997 123.5 68.7739 122.81 70.4196C122.266 71.7149 122.641 73.1598 123.623 74.057L123.301 74.8232L112.414 79.2722C112.149 79.3793 111.938 79.5882 111.827 79.853L111.409 80.8479L109.42 80.0125L110.5 77.4394L115.737 75.2994C116.002 75.1922 116.212 74.9833 116.323 74.7186L117.653 71.5508C118.982 71.6236 120.276 70.8795 120.82 69.5843C121.511 67.9385 120.734 66.0372 119.088 65.3462C117.442 64.6553 115.541 65.4323 114.85 67.078C114.306 68.3733 114.681 69.8181 115.663 70.7153L114.506 73.4714L109.269 75.6114C109.004 75.7186 108.794 75.9275 108.683 76.1922L107.43 79.1771L105.44 78.3417L109.694 68.2091C111.022 68.2819 112.316 67.5379 112.86 66.2426C113.551 64.5969 112.774 62.6955 111.128 62.0046C109.482 61.3137 107.581 62.0906 106.89 63.7363C106.346 65.0316 106.721 66.4765 107.704 67.3737L103.45 77.5062L101.46 76.6708L102.713 73.6859C102.824 73.4212 102.826 73.1247 102.717 72.86L100.577 67.6234L101.734 64.8673C103.062 64.9402 104.356 64.1961 104.9 62.9008C105.591 61.2551 104.814 59.3538 103.168 58.6628C101.523 57.9719 99.6213 58.7489 98.9304 60.3946C98.3866 61.6898 98.7617 63.1347 99.744 64.0319L98.4141 67.1998C98.3029 67.4645 98.3012 67.7611 98.4101 68.0257L100.55 73.2623L99.47 75.8354L97.48 75L97.8977 74.005C98.0089 73.7403 98.0106 73.4437 97.9017 73.1791L93.4526 62.2918L93.7743 61.5256C95.1026 61.5984 96.3967 60.8544 96.9405 59.5591C97.6314 57.9134 96.8545 56.012 95.2087 55.3211C93.563 54.6302 91.6617 55.4071 90.9707 57.0529C90.4269 58.3481 90.8021 59.793 91.7843 60.6902L91.2898 61.8681C91.1787 62.1328 91.1769 62.4294 91.2858 62.694L95.735 73.5813L95.4901 74.1645L92.5052 72.9114C89.762 71.7597 86.5936 73.0544 85.4419 75.7976L83.7711 79.7775L80.203 78.2795L78.063 73.0424C77.9558 72.7775 77.746 72.5666 77.4822 72.4559L72.5074 70.3673L71.6719 72.3572L76.235 74.2729L78.375 79.51C78.4821 79.7749 78.6919 79.9858 78.9558 80.0965L82.9356 81.7674L82.1002 83.7573L69.1657 78.3271L68.3303 80.317L81.2648 85.7472L80.4294 87.7371L76.4495 86.0663C76.1857 85.9555 75.8882 85.9534 75.6236 86.0623L70.387 88.2025L65.824 86.2868L64.9885 88.2767L69.9633 90.3653C70.2272 90.476 70.5246 90.4781 70.7892 90.3693L76.0258 88.2291L79.5939 89.7271L78.7585 91.717C77.6068 94.4602 78.9015 97.6286 81.6448 98.7803L88.9897 101.864L85.329 105.008L81.9638 103.596L81.1284 105.586L86.1032 107.674L85.4407 109.252L80.2036 111.392C79.9387 111.499 79.7282 111.708 79.617 111.973L77.1108 117.943L79.1007 118.778L81.4341 113.22L86.6712 111.08C86.9361 110.973 87.1466 110.764 87.2577 110.499L88.0931 108.509L90.0831 109.345L87.5 115.498C86.1718 115.424 84.8777 116.168 84.3338 117.464C83.6428 119.11 84.4198 121.011 86.0655 121.702C87.7112 122.393 89.6126 121.616 90.3035 119.97C90.8473 118.675 90.4722 117.23 89.4899 116.333L92.073 110.18L94.0629 111.016L93.2275 113.006C93.1163 113.27 93.1146 113.567 93.2235 113.832L95.3637 119.068L93.0303 124.626L95.0202 125.462L97.5264 119.492C97.6376 119.227 97.6393 118.931 97.5304 118.666L95.3903 113.429L96.0528 111.851L101.028 113.94L101.863 111.95L98.4979 110.537L98.1789 105.722L105.524 108.805C108.267 109.957 111.435 108.662 112.587 105.919L113.423 103.929L116.991 105.427L119.131 110.664C119.238 110.929 119.448 111.14 119.711 111.251L124.686 113.339L125.522 111.349L120.959 109.434L118.819 104.197C118.711 103.932 118.502 103.721 118.238 103.61L114.258 101.939L115.093 99.9494L128.028 105.38L128.863 103.39L115.929 97.9595L116.764 95.9696L120.744 97.6404C121.008 97.7512 121.305 97.7533 121.57 97.6444L126.807 95.5042L131.37 97.4199L132.205 95.43L127.23 93.3414C126.966 93.2307 126.669 93.2286 126.404 93.3374ZM126.212 70.6781C126.76 70.9082 127.02 71.5418 126.789 72.0908C126.559 72.6398 125.925 72.8982 125.377 72.668C124.829 72.4379 124.569 71.8044 124.799 71.2554C125.03 70.7064 125.664 70.448 126.212 70.6781ZM118.252 67.3364C118.801 67.5665 119.06 68.2001 118.83 68.7491C118.599 69.2981 117.965 69.5565 117.417 69.3264C116.869 69.0962 116.609 68.4627 116.84 67.9137C117.07 67.3647 117.704 67.1063 118.252 67.3364ZM110.293 63.9948C110.841 64.2249 111.1 64.8584 110.87 65.4074C110.64 65.9564 110.005 66.2148 109.457 65.9847C108.909 65.7546 108.65 65.121 108.88 64.572C109.111 64.023 109.745 63.7646 110.293 63.9948ZM102.333 60.6531C102.881 60.8832 103.141 61.5167 102.91 62.0657C102.68 62.6147 102.046 62.8731 101.498 62.643C100.95 62.4129 100.69 61.7793 100.92 61.2303C101.151 60.6813 101.785 60.4229 102.333 60.6531ZM94.3734 57.3114C94.9215 57.5415 95.1811 58.175 94.9506 58.724C94.7201 59.273 94.0861 59.5314 93.538 59.3013C92.9898 59.0712 92.7302 58.4376 92.9607 57.8886C93.1912 57.3396 93.8253 57.0813 94.3734 57.3114ZM86.9009 119.713C86.3528 119.482 86.0932 118.849 86.3237 118.3C86.5542 117.751 87.1882 117.492 87.7364 117.723C88.2845 117.953 88.5441 118.586 88.3136 119.135C88.0831 119.684 87.4491 119.943 86.9009 119.713ZM91.6698 74.9016L115.549 84.9266C117.195 85.6176 117.972 87.5189 117.281 89.1647L111.433 103.094L81.5839 90.5628L87.4318 76.6333C88.1228 74.9876 90.0241 74.2107 91.6698 74.9016ZM96.2731 109.603L87.5534 105.943L91.2141 102.798L95.954 104.788L96.2731 109.603ZM106.359 106.816L82.4798 96.7905C80.834 96.0996 80.0571 94.1982 80.748 92.5525L110.597 105.084C109.906 106.73 108.005 107.506 106.359 106.816Z" fill="#FFD568"/>
</g>
</g>
<defs>
<filter id="filter0_d_12621_110293" x="0.171828" y="0" width="189.965" height="186.172" filterUnits="userSpaceOnUse" color-interpolation-filters="sRGB">
<feFlood flood-opacity="0" result="BackgroundImageFix"/>
<feColorMatrix in="SourceAlpha" type="matrix" values="0 0 0 0 0 0 0 0 0 0 0 0 0 0 0 0 0 0 127 0" result="hardAlpha"/>
<feOffset dx="-6.82817" dy="3.03474"/>
<feComposite in2="hardAlpha" operator="out"/>
<feColorMatrix type="matrix" values="0 0 0 0 1 0 0 0 0 0.835294 0 0 0 0 0.407843 0 0 0 1 0"/>
<feBlend mode="normal" in2="BackgroundImageFix" result="effect1_dropShadow_12621_110293"/>
<feBlend mode="normal" in="SourceGraphic" in2="effect1_dropShadow_12621_110293" result="shape"/>
</filter>
<clipPath id="clip0_12621_110293">
<rect width="80.7453" height="80.7453" fill="white" transform="translate(77 39) rotate(22.774)"/>
</clipPath>
</defs>
</svg>
