<svg width="32" height="32" viewBox="0 0 32 32" fill="rgba(0, 0, 0, 0.7)" xmlns="http://www.w3.org/2000/svg">
<path d="M23.3805 6.31425C23.3736 6.32863 23.3674 6.343 23.3611 6.358C23.3399 6.40488 23.3193 6.45175 23.2986 6.49925L23.2761 6.5555C23.2593 6.59988 23.2424 6.64425 23.2268 6.68925C23.2193 6.71113 23.2118 6.733 23.2049 6.75175C23.1905 6.79425 23.1774 6.83738 23.1649 6.88113L23.1443 6.953C23.133 6.99467 23.1224 7.03633 23.1124 7.078C23.1061 7.10363 23.0999 7.12925 23.0949 7.15488C23.0855 7.19675 23.0774 7.23988 23.0699 7.27988C23.0649 7.30613 23.0599 7.33238 23.0555 7.35925C23.0486 7.40238 23.043 7.44675 23.0374 7.4905C23.0343 7.51675 23.0305 7.54238 23.0274 7.56863C23.0224 7.61675 23.0193 7.66488 23.0155 7.713C23.0155 7.7355 23.0118 7.758 23.0105 7.78113C23.0068 7.85175 23.0049 7.923 23.0049 7.99425C23.0049 8.05675 23.0049 8.11925 23.0093 8.178V8.21675C23.0124 8.27613 23.0168 8.33488 23.0224 8.39363L23.0261 8.42238C23.0318 8.47675 23.0386 8.52988 23.0461 8.583C23.0461 8.59238 23.0461 8.60238 23.0505 8.61175C23.0593 8.66925 23.0699 8.72675 23.0811 8.78363L23.0886 8.8205C23.1011 8.878 23.1136 8.9355 23.1286 8.99238C23.143 9.04988 23.1599 9.10613 23.1768 9.16175C23.1805 9.17363 23.1843 9.1855 23.1874 9.19738C23.2049 9.25238 23.223 9.30613 23.2424 9.35925C23.2455 9.36863 23.2493 9.37737 23.2524 9.38612C23.2705 9.43487 23.2899 9.483 23.3099 9.53113C23.313 9.53988 23.3168 9.54863 23.3205 9.55738C23.3424 9.60925 23.3661 9.6605 23.3899 9.71175L23.4068 9.74487C23.4318 9.79612 23.4574 9.84738 23.4843 9.89738C23.8979 10.6571 24.5459 11.2628 25.3318 11.6242L25.3549 11.6349C25.4661 11.6849 25.5793 11.7305 25.6955 11.7705L25.7549 11.7905L25.8486 11.8199C25.8768 11.8286 25.9049 11.8361 25.9336 11.8442L26.0536 11.8755C26.0893 11.8842 26.1249 11.8924 26.1611 11.8999L26.233 11.9149L26.3474 11.9349L26.4055 11.9449C26.4618 11.953 26.5186 11.9599 26.5755 11.9661L26.6236 11.9705C26.6693 11.9749 26.7155 11.9786 26.7624 11.9811L26.8155 11.9842C26.878 11.9842 26.9368 11.9886 26.9986 11.9886C27.0705 11.9886 27.1418 11.9886 27.213 11.983L27.2811 11.9774C27.3293 11.9774 27.3774 11.9705 27.4249 11.9655C27.4511 11.9655 27.4768 11.9592 27.503 11.9555C27.5468 11.9505 27.5911 11.9449 27.6343 11.938L27.7136 11.9236C27.7561 11.9161 27.7986 11.908 27.8386 11.8992L27.9161 11.8811C27.958 11.8711 28.0005 11.8611 28.0411 11.8492C28.0655 11.843 28.0899 11.8361 28.1136 11.8286C28.1568 11.8161 28.1993 11.803 28.2418 11.7892L28.3086 11.7667C28.3524 11.7517 28.3961 11.7355 28.4399 11.7186L28.4986 11.6955C28.5449 11.6767 28.5905 11.6567 28.6355 11.6361L28.6836 11.6149C28.7336 11.5917 28.7824 11.5667 28.8311 11.5417C28.8418 11.5361 28.853 11.5311 28.8636 11.5249C28.9205 11.4949 28.9761 11.4624 29.0311 11.4311L29.0386 11.4267C29.569 11.1113 30.0192 10.6773 30.3538 10.1589C30.6884 9.64037 30.8984 9.05143 30.9674 8.4382C31.0364 7.82497 30.9624 7.2041 30.7513 6.62423C30.5402 6.04437 30.1977 5.52126 29.7506 5.09589C29.3036 4.67052 28.7641 4.35445 28.1744 4.17244C27.5848 3.99043 26.961 3.94742 26.352 4.04679C25.7429 4.14616 25.1652 4.3852 24.664 4.74519C24.1627 5.10518 23.7517 5.57634 23.463 6.12175L23.4499 6.14613C23.4311 6.2105 23.4049 6.26238 23.3805 6.31425Z" fill="#272727"/>
<path d="M23.2194 12.6519L16.6137 17.7894C16.4382 17.9258 16.2223 17.9999 16 17.9999C15.7777 17.9999 15.5617 17.9258 15.3862 17.7894L5.59687 10.1756L6.82437 8.59687L16 15.7331L21.8975 11.1462C21.3292 10.2251 21.0212 9.16712 21.0062 8.08486C20.9912 7.0026 21.2699 5.93652 21.8125 5H3C2.73478 5 2.48043 5.10536 2.29289 5.29289C2.10536 5.48043 2 5.73478 2 6V26C2 26.2652 2.10536 26.5196 2.29289 26.7071C2.48043 26.8946 2.73478 27 3 27H29C29.2652 27 29.5196 26.8946 29.7071 26.7071C29.8946 26.5196 30 26.2652 30 26V13.1956C28.9482 13.8041 27.7361 14.078 26.5249 13.9808C25.3137 13.8837 24.1607 13.4202 23.2194 12.6519V12.6519Z" fill="#272727"/>
</svg>
