<svg width="40" height="40" viewBox="0 0 40 40" fill="none" xmlns="http://www.w3.org/2000/svg">
<path d="M29.3765 9.13208C31.6205 11.3701 41.4305 25.3621 32.9545 33.8361C24.4825 42.3121 10.4945 32.5001 8.2465 30.2581C6.0045 28.0201 8.9165 21.4681 14.7505 15.6341C20.5885 9.79608 27.1325 6.88208 29.3765 9.13208ZM10.8485 28.3121C11.5125 28.9681 16.6385 27.3981 21.5765 22.4561C26.5105 17.5181 28.0885 12.3901 27.4245 11.7301C26.7685 11.0661 21.6365 12.6441 16.7045 17.5821C11.7625 22.5161 10.1885 27.6481 10.8485 28.3121ZM9.1325 11.9641L5.3245 8.15208C4.94949 7.77706 4.7388 7.26843 4.7388 6.73808C4.7388 6.20772 4.94949 5.69909 5.3245 5.32408C5.69952 4.94906 6.20815 4.73838 6.7385 4.73838C7.26885 4.73838 7.77748 4.94906 8.1525 5.32408L11.9605 9.13608C12.3355 9.51109 12.5462 10.0197 12.5462 10.5501C12.5462 10.8127 12.4945 11.0727 12.394 11.3153C12.2935 11.5579 12.1462 11.7784 11.9605 11.9641C11.7748 12.1498 11.5544 12.2971 11.3118 12.3976C11.0691 12.4981 10.8091 12.5498 10.5465 12.5498C10.0161 12.5498 9.50751 12.3391 9.1325 11.9641ZM17.7525 7.60008C17.523 7.72773 17.2705 7.80892 17.0096 7.83901C16.7487 7.8691 16.4844 7.84749 16.2318 7.77544C15.9792 7.70338 15.7433 7.58227 15.5375 7.41904C15.3317 7.2558 15.1601 7.05363 15.0325 6.82408L12.8585 2.97208C12.6007 2.50848 12.5376 1.96146 12.6832 1.45136C12.8287 0.941262 13.1709 0.509867 13.6345 0.252076C14.0981 -0.0057143 14.6451 -0.0687825 15.1552 0.0767457C15.6653 0.222274 16.0967 0.564478 16.3545 1.02808L18.5285 4.88008C18.6562 5.10962 18.7373 5.36207 18.7674 5.623C18.7975 5.88392 18.7759 6.14822 18.7039 6.4008C18.6318 6.65338 18.5107 6.88929 18.3475 7.09506C18.1842 7.30083 17.9821 7.47244 17.7525 7.60008ZM0.2565 13.6321C0.383945 13.4023 0.55545 13.2 0.7612 13.0366C0.966949 12.8732 1.2029 12.752 1.45555 12.6799C1.70819 12.6078 1.97258 12.5863 2.23357 12.6165C2.49455 12.6468 2.74702 12.7282 2.9765 12.8561L6.8565 14.9781C7.08605 15.1057 7.28821 15.2773 7.45144 15.4831C7.61467 15.6889 7.73577 15.9248 7.80783 16.1774C7.87989 16.4299 7.90149 16.6942 7.87141 16.9552C7.84133 17.2161 7.76015 17.4685 7.6325 17.6981C7.50485 17.9276 7.33325 18.1298 7.12747 18.293C6.9217 18.4562 6.68579 18.5773 6.43322 18.6494C6.18064 18.7215 5.91634 18.7431 5.65542 18.713C5.39449 18.6829 5.14205 18.6017 4.9125 18.4741L1.0325 16.3521C0.802944 16.2244 0.600773 16.0528 0.437538 15.8471C0.274303 15.6413 0.153202 15.4054 0.0811424 15.1528C0.00908279 14.9002 -0.0125198 14.6359 0.0175667 14.375C0.0476532 14.1141 0.128845 13.8616 0.2565 13.6321Z" fill="#272727"/>
</svg>
