<svg width="49" height="49" viewBox="0 0 49 49" fill="none" xmlns="http://www.w3.org/2000/svg">
<g clip-path="url(#clip0_13610_122546)">
<path d="M24.6193 39.6796C27.1875 37.791 25.7341 34.8486 23.7628 33.2681C21.7947 31.635 19.4456 30.7754 17.0933 29.9685C15.4296 29.4484 13.8598 28.6658 12.4431 27.6504C11.8509 27.2385 10.6719 26.4995 11.555 26.0582C12.4541 25.6127 14.3452 26.111 15.2769 26.2431C16.9053 26.4662 18.5432 26.7902 20.1187 27.2688L21.0189 24.0985C18.0656 23.1061 14.4547 22.4952 11.343 22.8555C9.56705 23.0509 7.85688 23.8841 7.76859 25.8905C7.67634 27.6221 8.92541 29.015 10.1932 30.0235C13.1825 32.3858 16.9899 32.8928 20.2267 34.7583C20.9155 35.1446 21.7427 35.5975 22.2615 36.253C22.7879 36.8721 22.7202 36.9418 21.9631 37.1427C19.9656 37.6728 17.054 36.7729 15.1533 36.1737L14.2531 39.344C17.1196 40.2042 21.872 41.4778 24.6193 39.6796ZM33.6758 13.9628L26.966 25.5206L23.277 26.4996L22.298 22.8106L29.0036 11.2367L33.6758 13.9628ZM38.8195 11.2527C38.9316 11.7403 38.5648 12.3722 38.1818 13.0084L35.2039 18.1613L33.4305 17.1317L36.5116 11.848L35.3089 11.1498L34.5161 12.5155L29.8481 9.80553L32.3924 5.42294C32.6764 4.93372 33.3047 4.76699 33.7778 5.05528L36.6927 6.74754C37.1734 6.99933 37.3444 7.6437 37.0604 8.13292C36.8118 8.56098 36.5752 8.96867 36.6607 9.29085C36.714 9.62158 37.1302 9.89047 37.525 10.0788C38.1205 10.4381 38.7073 10.7652 38.8195 11.2527Z" fill="#272727"/>
</g>
<defs>
<clipPath id="clip0_13610_122546">
<rect width="40" height="40" fill="white" transform="translate(0 10.2603) rotate(-14.8628)"/>
</clipPath>
</defs>
</svg>
