<svg width="68" height="42" viewBox="0 0 68 42" fill="none" xmlns="http://www.w3.org/2000/svg">
<mask id="path-1-outside-1_13616_114689" maskUnits="userSpaceOnUse" x="0" y="0" width="68" height="42" fill="black">
<rect fill="white" width="68" height="42"/>
<path d="M16.5842 7.7949C16.6089 8.96873 16.5719 9.95058 16.4732 10.7405C16.2881 12.2105 15.8871 13.4227 15.2701 14.3771C14.7272 15.2219 13.9252 15.8527 12.8641 16.2695C11.9757 16.6316 10.964 16.8126 9.82883 16.8126C8.669 16.8126 7.58938 16.5219 6.58995 15.9404C5.60286 15.37 4.87489 14.613 4.40602 13.6695C4.19627 13.2307 4.03587 12.7261 3.92482 12.1556C3.81377 11.5852 3.74591 11.1134 3.72123 10.7405C3.70889 10.3675 3.70272 9.85734 3.70272 9.21008C3.70272 8.96873 3.70272 8.79321 3.70272 8.6835C3.69038 7.16959 3.69655 5.32656 3.72123 3.15442H2.03702V2.00253H6.73801V3.15442H5.01678C4.9921 5.33753 4.98594 7.17507 4.99827 8.66705C4.99827 8.78772 4.99827 8.96873 4.99827 9.21008C4.99827 9.82443 5.00444 10.3016 5.01678 10.6417C5.04146 10.9818 5.09698 11.4042 5.18335 11.9088C5.26972 12.4025 5.40545 12.8358 5.59053 13.2088C5.96068 13.9438 6.5406 14.5362 7.33026 14.986C8.10759 15.4358 8.94045 15.6607 9.82883 15.6607C10.4704 15.6607 11.0503 15.5949 11.5686 15.4632C12.0991 15.3425 12.531 15.178 12.8641 14.9695C13.1973 14.7721 13.4625 14.5801 13.66 14.3936C13.8574 14.2071 14.0239 14.0096 14.1597 13.8012C14.6779 12.9894 15.0172 11.9253 15.1776 10.6088C15.2763 9.86282 15.3133 8.93034 15.2886 7.81136C15.2886 7.71262 15.2886 7.64132 15.2886 7.59744C15.264 6.67592 15.2146 5.91348 15.1406 5.31011C15.0295 4.39956 14.7149 3.81265 14.1967 3.54936C13.8142 3.35189 13.37 3.2751 12.8641 3.31898C12.3953 3.35189 11.8894 3.47805 11.3465 3.69746C10.4581 4.04851 9.68693 4.50378 9.03299 5.06327C8.29267 5.69956 7.84848 6.20968 7.70042 6.59364C7.62639 6.80208 7.62639 6.93921 7.70042 7.00503C7.82381 7.10377 8.11993 7.06537 8.5888 6.88984C8.98363 6.73626 9.60056 6.41263 10.4396 5.91896C11.1922 5.46918 11.7105 5.20589 11.9942 5.1291C12.6605 4.9426 13.1911 5.01391 13.5859 5.34302C13.9067 5.60631 14.0054 5.96285 13.882 6.41263C13.8204 6.6101 13.7155 6.80757 13.5674 7.00503C13.4317 7.19153 13.2466 7.38351 13.0122 7.58098C12.7777 7.76748 12.5803 7.91558 12.4199 8.02528C12.2595 8.13498 12.0374 8.28308 11.7536 8.46958C11.5316 8.6122 11.3773 8.71642 11.2909 8.78224C11.2416 8.81515 11.1367 8.88097 10.9763 8.97971C10.6185 9.19911 10.3594 9.37464 10.199 9.50628C10.0633 9.61599 9.95838 9.70924 9.88435 9.78603C9.9337 9.80797 9.98923 9.82443 10.0509 9.8354C10.1866 9.86831 10.4026 9.9067 10.6987 9.95058C10.9825 9.99447 11.1799 10.0274 11.2909 10.0493C11.9572 10.2358 12.315 10.554 12.3644 11.0037C12.4014 11.2999 12.2719 11.6016 11.9757 11.9088C11.7907 12.0953 11.5316 12.2928 11.1984 12.5012C10.8406 12.7426 10.31 13.0333 9.60673 13.3733C9.47101 13.4392 9.37847 13.4831 9.32911 13.505C9.16871 13.5928 8.92811 13.7189 8.60731 13.8835L7.95953 12.8797C8.28033 12.7151 8.52094 12.5945 8.68134 12.5177C8.73069 12.4847 8.8294 12.4354 8.97746 12.3696C9.55738 12.0843 9.9954 11.8485 10.2915 11.662C10.6 11.4755 10.8283 11.3109 10.9763 11.1683C10.9516 11.1683 10.927 11.1628 10.9023 11.1518C10.8529 11.1409 10.711 11.1189 10.4766 11.086C10.0571 11.0202 9.74246 10.9599 9.5327 10.905C9.03916 10.7514 8.72452 10.5156 8.5888 10.1974C8.46541 9.93413 8.49009 9.65438 8.66283 9.35818C8.76154 9.17169 8.92194 8.98519 9.14404 8.79869C9.37847 8.60123 9.74246 8.34891 10.236 8.04174C10.3717 7.95397 10.4581 7.89912 10.4951 7.87718C10.5938 7.80039 10.7604 7.69068 10.9948 7.54807C11.5007 7.21896 11.8585 6.96664 12.0683 6.79111C12.3521 6.56073 12.531 6.35778 12.605 6.18225C12.531 6.19322 12.4569 6.20968 12.3829 6.23162C12.2225 6.2755 11.8092 6.48942 11.1429 6.87339C10.2422 7.41094 9.56355 7.76748 9.10702 7.943C8.68751 8.09659 8.31735 8.18435 7.99655 8.20629C7.52768 8.22823 7.13902 8.11304 6.83055 7.86072C6.60846 7.67423 6.4604 7.43836 6.38636 7.15313C6.32467 6.8679 6.35552 6.56622 6.4789 6.24808C6.68866 5.67762 7.23773 5.00842 8.1261 4.24049C8.89109 3.58227 9.78564 3.05021 10.8097 2.6443C11.5007 2.37004 12.1485 2.21097 12.7531 2.16709C13.5304 2.11224 14.2214 2.2384 14.826 2.54557C15.739 3.00632 16.2757 3.88944 16.4361 5.19492C16.5102 5.8312 16.5595 6.62656 16.5842 7.58098C16.5842 7.62486 16.5842 7.69617 16.5842 7.7949Z"/>
<path d="M21.8722 16.8126L30.2748 2.00253L31.4408 2.52911L24.3708 15.0189C24.4695 14.997 24.7965 14.9202 25.3517 14.7885C25.907 14.6679 26.308 14.5801 26.5547 14.5252C26.8138 14.4704 27.147 14.4101 27.5542 14.3442C27.9613 14.2894 28.2945 14.262 28.5536 14.262C29.6887 14.262 30.608 14.5746 31.3113 15.1999L31.3853 15.2657C31.6321 15.156 31.9344 14.9695 32.2922 14.7063L33.125 15.6278C32.4094 16.1434 31.8418 16.4286 31.4223 16.4835H31.3113C31.0398 16.4835 30.7375 16.3354 30.4044 16.0392C29.9478 15.6333 29.3741 15.4303 28.6831 15.4303C28.1649 15.4303 27.4554 15.5181 26.5547 15.6936C25.654 15.8691 24.8952 16.0337 24.2783 16.1873C23.6737 16.3518 23.3467 16.4451 23.2973 16.467L21.8722 16.8126ZM24.5929 10.0329L21.7242 8.25566L22.483 7.30123L25.3517 9.07844L24.5929 10.0329ZM26.9989 5.96833L24.1302 4.19113L24.889 3.2367L27.7577 5.01391L26.9989 5.96833Z"/>
<path d="M45.8639 12.3037L45.9565 12.1556L47.0484 12.6987L46.9559 12.8468C46.9189 12.9016 46.8695 12.9784 46.8078 13.0771C46.7585 13.1759 46.7215 13.2417 46.6968 13.2746C46.4253 13.6586 46.2094 13.9548 46.049 14.1632C45.9009 14.3607 45.6418 14.6514 45.2717 15.0354C44.9139 15.4303 44.5807 15.732 44.2723 15.9404C43.9638 16.1598 43.5813 16.3573 43.1248 16.5328C42.6682 16.7193 42.2055 16.8126 41.7367 16.8126C41.5146 16.8126 41.2863 16.7961 41.0519 16.7632L40.8668 16.6974C39.8057 16.1818 39.2751 15.2877 39.2751 14.0151C39.2751 13.4227 39.3923 12.7261 39.6268 11.9253C39.4787 11.9143 39.3121 11.8704 39.1271 11.7936C38.7076 11.64 38.3559 11.3987 38.0721 11.0696C37.7883 10.7295 37.6156 10.3455 37.5539 9.91767C37.4922 9.75312 37.4614 9.55565 37.4614 9.32527C37.4614 8.52443 37.6896 7.67423 38.1461 6.77466C38.3065 6.47846 38.4546 6.22614 38.5903 6.0177C39.3677 4.98648 40.1018 4.18564 40.7928 3.61518C41.4961 3.03375 42.3844 2.4962 43.4579 2.00253L44.0316 2.98987C43.0569 3.43965 42.2611 3.92235 41.6441 4.43796C41.0272 4.95357 40.3609 5.67762 39.6453 6.6101C39.6083 6.67592 39.5466 6.78014 39.4602 6.92276C39.3862 7.06537 39.3245 7.17508 39.2751 7.25187C38.905 7.97591 38.7199 8.66705 38.7199 9.32527C38.7199 9.44595 38.7384 9.57211 38.7754 9.70375C38.8741 10.2413 39.1517 10.5978 39.6083 10.7734C39.744 10.8172 39.8674 10.8447 39.9784 10.8556C40.0154 10.7789 40.0586 10.6746 40.108 10.543L40.5522 9.5392C40.7743 9.0565 40.947 8.70545 41.0704 8.48604C41.1074 8.43119 41.1629 8.33794 41.237 8.20629C41.3233 8.06368 41.3912 7.95946 41.4405 7.89364C42.44 6.30293 43.5998 5.26623 44.92 4.78353L45.0126 4.76707C45.136 4.73416 45.2717 4.71771 45.4197 4.71771C45.7282 4.71771 45.9935 4.78353 46.2156 4.91517C46.4994 5.06876 46.6721 5.28817 46.7338 5.5734L46.7523 5.68859V5.83669C46.7523 5.85863 46.7523 5.90251 46.7523 5.96833C46.7523 6.02318 46.7523 6.06706 46.7523 6.09998C46.7523 6.35229 46.703 6.56073 46.6042 6.72529C46.5426 6.87887 46.4253 7.10925 46.2526 7.41642C45.5493 8.65608 44.5992 9.68181 43.4024 10.4936C43.1433 10.6691 42.8965 10.8172 42.6621 10.9379C42.5634 10.9818 42.4893 11.0257 42.44 11.0696C42.3166 11.1464 42.1809 11.2232 42.0328 11.2999C41.8601 11.3877 41.6503 11.4755 41.4035 11.5632C41.3048 11.6291 41.1568 11.7058 40.9593 11.7936C40.6756 12.748 40.5337 13.494 40.5337 14.0316C40.5337 14.8214 40.8175 15.37 41.385 15.6771C41.4961 15.6881 41.6071 15.6936 41.7182 15.6936C42.113 15.6936 42.4893 15.6113 42.8471 15.4468C43.2173 15.2822 43.569 15.0409 43.9021 14.7227C44.2476 14.4046 44.5437 14.0974 44.7905 13.8012C45.0372 13.494 45.3149 13.121 45.6233 12.6822C45.6357 12.6712 45.6665 12.6219 45.7159 12.5341C45.7776 12.4354 45.8269 12.3586 45.8639 12.3037ZM41.7182 9.95058L41.5886 10.2468C41.6009 10.2358 41.6195 10.2248 41.6441 10.2139C41.6688 10.1919 41.6873 10.1755 41.6997 10.1645C41.7984 10.0987 41.9156 10.0329 42.0513 9.96704C42.1994 9.89025 42.403 9.76409 42.6621 9.58856C43.6615 8.93034 44.4882 8.03625 45.1421 6.9063C45.2655 6.67592 45.3704 6.46748 45.4568 6.28099L45.5123 6.21517V5.91896V5.82023C45.4999 5.8312 45.4444 5.83669 45.3457 5.83669C44.3586 6.20968 43.4209 7.07634 42.5325 8.43667C42.4955 8.51346 42.4338 8.61768 42.3474 8.74933C42.2611 8.88097 42.2055 8.96325 42.1809 8.99616C42.0328 9.28139 41.8786 9.59953 41.7182 9.95058ZM52.0826 3.94429L49.4359 9.35818L52.0826 14.7721L50.9351 15.2164L48.0664 9.35818L50.9351 3.49999L52.0826 3.94429Z"/>
<path d="M61.6675 16.8126C61.6058 16.8126 61.5441 16.8126 61.4824 16.8126C60.8778 16.8126 60.2732 16.6809 59.6686 16.4176C58.3978 15.8691 57.6698 14.8982 57.4847 13.505L58.7803 13.3733C58.9036 14.3278 59.3787 14.9915 60.2054 15.3645C60.6249 15.5619 61.0506 15.6607 61.4824 15.6607H61.5009H61.5194C62.6299 15.6936 63.4689 15.3919 64.0365 14.7556C64.3326 14.4375 64.5115 14.1303 64.5732 13.8341V13.8177C64.6843 13.2911 64.7151 12.9126 64.6658 12.6822C64.6164 12.4409 64.4868 12.216 64.2771 12.0075C64.0303 11.7662 63.5306 11.5632 62.778 11.3987C62.3214 11.2999 61.9944 11.2067 61.797 11.1189C61.3652 10.9324 61.0999 10.6527 61.0012 10.2797C60.9272 10.0164 60.9765 9.77506 61.1493 9.55565C61.322 9.32527 61.5996 9.16072 61.9821 9.06198C62.3646 8.95228 62.889 8.85903 63.5553 8.78224C63.7774 8.7603 63.9131 8.74384 63.9625 8.73287C63.9501 8.71093 63.9378 8.68899 63.9254 8.66705C63.8638 8.66705 63.7589 8.66705 63.6108 8.66705C63.0186 8.65608 62.5682 8.61768 62.2597 8.55186C61.9636 8.47507 61.723 8.36536 61.5379 8.22275C61.2665 8.01431 61.1246 7.75102 61.1122 7.43288C61.0876 6.93921 61.285 6.57719 61.7045 6.34681C61.9019 6.23711 62.2104 6.14934 62.6299 6.08352C62.815 6.06158 62.9384 6.04512 63 6.03415C63.4319 5.91348 63.7095 5.76538 63.8329 5.58985C63.9193 5.44724 63.9378 5.22783 63.8884 4.93163C63.802 4.32826 63.4257 3.8675 62.7594 3.54936C62.2165 3.30801 61.5996 3.17636 60.9087 3.15442C59.9956 3.13248 59.2121 3.23122 58.5582 3.45062C57.9906 3.63712 57.5341 3.91138 57.1886 4.2734C56.8184 4.65737 56.5778 5.12361 56.4668 5.67213C56.3557 6.18774 56.3681 6.74723 56.5038 7.3506L55.2267 7.56452C55.0663 6.82951 55.054 6.1274 55.1897 5.45821C55.3501 4.70125 55.6833 4.05948 56.1891 3.5329C56.6827 3.01729 57.3181 2.62784 58.0955 2.36456C58.9098 2.10127 59.8599 1.98059 60.9457 2.00253C61.8341 2.03544 62.6361 2.21097 63.3517 2.52911C64.4251 3.02278 65.0359 3.77425 65.184 4.78353C65.258 5.34302 65.1778 5.80378 64.9434 6.1658C64.6596 6.60461 64.1352 6.92824 63.3702 7.13668C63.2468 7.16959 63.0679 7.19702 62.8335 7.21896C62.6114 7.25187 62.4695 7.27929 62.4078 7.30123C62.4078 7.32318 62.4078 7.34512 62.4078 7.36706C62.4818 7.41094 62.6114 7.44385 62.7965 7.46579C62.9692 7.48773 63.2468 7.50419 63.6293 7.51516C64.0365 7.51516 64.3079 7.54258 64.4437 7.59744C64.7028 7.70714 64.9125 7.88267 65.0729 8.12401C65.2333 8.37633 65.3012 8.62865 65.2765 8.88097C65.2518 9.12232 65.1531 9.32527 64.9804 9.48983C64.82 9.65438 64.5979 9.76957 64.3141 9.8354C64.2154 9.85734 64.018 9.89025 63.7219 9.93413C63.2777 9.97801 62.9507 10.0219 62.7409 10.0658C62.6422 10.0877 62.5559 10.1097 62.4818 10.1316C62.5929 10.1645 62.7965 10.2139 63.0926 10.2797C63.401 10.3455 63.6478 10.4059 63.8329 10.4607C64.018 10.5046 64.2524 10.5978 64.5362 10.7405C64.82 10.8831 65.0544 11.0476 65.2395 11.2341C65.5233 11.5303 65.7207 11.8485 65.8317 12.1885C65.9551 12.5286 66.0107 12.8358 65.9983 13.1101C65.986 13.3843 65.9366 13.7025 65.8503 14.0645C65.7392 14.5582 65.4739 15.0299 65.0544 15.4797C64.2401 16.3683 63.1111 16.8126 61.6675 16.8126Z"/>
<path d="M10.4026 35.4912L10.4951 35.3431L11.5871 35.8861L11.4945 36.0342C11.4575 36.0891 11.4082 36.1658 11.3465 36.2646C11.2971 36.3633 11.2601 36.4291 11.2354 36.462C10.964 36.846 10.748 37.1422 10.5876 37.3507C10.4396 37.5481 10.1805 37.8388 9.81032 38.2228C9.4525 38.6177 9.11936 38.9194 8.81089 39.1279C8.50243 39.3473 8.11993 39.5447 7.66341 39.7203C7.20688 39.9068 6.74418 40 6.27532 40C6.05322 40 5.82496 39.9835 5.59053 39.9506L5.40545 39.8848C4.34433 39.3692 3.81377 38.4751 3.81377 37.2026C3.81377 36.6101 3.93099 35.9135 4.16542 35.1127C4.01736 35.1017 3.85079 35.0578 3.66571 34.981C3.2462 34.8275 2.89455 34.5861 2.61076 34.257C2.32697 33.9169 2.15423 33.533 2.09254 33.1051C2.03085 32.9406 2 32.7431 2 32.5127C2 31.7119 2.22826 30.8617 2.68479 29.9621C2.84519 29.6659 2.99326 29.4136 3.12898 29.2051C3.90631 28.1739 4.64046 27.3731 5.33142 26.8026C6.03471 26.2212 6.92309 25.6836 7.99655 25.19L8.57029 26.1773C7.59554 26.6271 6.79971 27.1098 6.18278 27.6254C5.56585 28.141 4.89957 28.865 4.18393 29.7975C4.14691 29.8634 4.08522 29.9676 3.99885 30.1102C3.92482 30.2528 3.86313 30.3625 3.81377 30.4393C3.44361 31.1633 3.25853 31.8545 3.25853 32.5127C3.25853 32.6334 3.27704 32.7595 3.31406 32.8912C3.41277 33.4287 3.69039 33.7853 4.14691 33.9608C4.28264 34.0047 4.40602 34.0321 4.51707 34.0431C4.55409 33.9663 4.59727 33.8621 4.64662 33.7304L5.09081 32.7266C5.31291 32.2439 5.48565 31.8929 5.60903 31.6735C5.64605 31.6186 5.70157 31.5254 5.7756 31.3937C5.86197 31.2511 5.92984 31.1469 5.97919 31.0811C6.97862 29.4904 8.13844 28.4537 9.45867 27.971L9.55121 27.9545C9.67459 27.9216 9.81032 27.9051 9.95838 27.9051C10.2668 27.9051 10.5321 27.971 10.7542 28.1026C11.038 28.2562 11.2107 28.4756 11.2724 28.7608L11.2909 28.876V29.0241C11.2909 29.0461 11.2909 29.0899 11.2909 29.1558C11.2909 29.2106 11.2909 29.2545 11.2909 29.2874C11.2909 29.5397 11.2416 29.7482 11.1429 29.9127C11.0812 30.0663 10.964 30.2967 10.7912 30.6039C10.0879 31.8435 9.13787 32.8692 7.94103 33.6811C7.68191 33.8566 7.43514 34.0047 7.20071 34.1254C7.102 34.1692 7.02797 34.2131 6.97862 34.257C6.85523 34.3338 6.71951 34.4106 6.57144 34.4874C6.3987 34.5751 6.18895 34.6629 5.94218 34.7507C5.84347 34.8165 5.6954 34.8933 5.49799 34.981C5.2142 35.9355 5.07231 36.6815 5.07231 37.219C5.07231 38.0089 5.35609 38.5574 5.92367 38.8646C6.03471 38.8755 6.14576 38.881 6.25681 38.881C6.65164 38.881 7.02797 38.7987 7.38579 38.6342C7.75595 38.4696 8.1076 38.2283 8.44074 37.9101C8.78622 37.592 9.08234 37.2848 9.32911 36.9886C9.57589 36.6815 9.8535 36.3085 10.162 35.8696C10.1743 35.8587 10.2052 35.8093 10.2545 35.7215C10.3162 35.6228 10.3656 35.546 10.4026 35.4912ZM6.25681 33.138L6.12725 33.4342C6.13959 33.4232 6.1581 33.4123 6.18278 33.4013C6.20745 33.3794 6.22596 33.3629 6.2383 33.3519C6.33701 33.2861 6.45423 33.2203 6.58995 33.1545C6.73801 33.0777 6.9416 32.9515 7.20071 32.776C8.20013 32.1178 9.02682 31.2237 9.68076 30.0937C9.80415 29.8634 9.90903 29.6549 9.9954 29.4684L10.0509 29.4026V29.1064V29.0077C10.0386 29.0186 9.98306 29.0241 9.88435 29.0241C8.89726 29.3971 7.95953 30.2638 7.07116 31.6241C7.03414 31.7009 6.97245 31.8051 6.88608 31.9368C6.79971 32.0684 6.74418 32.1507 6.71951 32.1836C6.57144 32.4688 6.41721 32.787 6.25681 33.138ZM16.6212 27.1317L13.9746 32.5456L16.6212 37.9595L15.4737 38.4038L12.605 32.5456L15.4737 26.6874L16.6212 27.1317Z"/>
<path d="M22.3935 39.9177L28.5011 27.4608L20.3946 30.7026L19.8579 29.6659L31.0367 25.19L24.781 37.9266L29.7781 36.3304C29.7041 36.1768 29.6486 36.0123 29.6116 35.8367C29.4635 35.2224 29.5005 34.63 29.7226 34.0595C29.957 33.4891 30.3519 33.0009 30.9071 32.595C31.1909 32.3975 31.5302 32.2604 31.925 32.1836C32.3322 32.0958 32.7271 32.0849 33.1096 32.1507C33.8005 32.2604 34.3064 32.5566 34.6272 33.0393C35.059 33.6975 35.1269 34.3338 34.8308 34.9481C34.5223 35.5954 33.8252 36.1494 32.7394 36.6101C32.4556 36.7199 32.1595 36.8241 31.851 36.9228C32.1225 37.0983 32.4186 37.219 32.7394 37.2848C33.3193 37.4274 33.8745 37.4274 34.4051 37.2848C34.948 37.1422 35.3552 36.8844 35.6266 36.5114L36.7186 37.1203C36.2867 37.7456 35.639 38.1679 34.7753 38.3874C34.0103 38.5848 33.2206 38.5903 32.4063 38.4038C31.6289 38.2283 30.9811 37.8717 30.4629 37.3342L22.3935 39.9177ZM32.5913 33.2532C32.2335 33.2532 31.9436 33.3355 31.7215 33.5C31.339 33.7743 31.0799 34.1034 30.9441 34.4874C30.8084 34.8494 30.7837 35.2169 30.8701 35.5899C30.9071 35.7106 30.9503 35.8312 30.9997 35.9519C31.2588 35.8971 31.5487 35.8148 31.8695 35.7051C32.1903 35.5844 32.5358 35.4144 32.906 35.195C33.2761 34.9756 33.5167 34.7452 33.6278 34.5038C33.7635 34.2405 33.7203 33.9443 33.4982 33.6152C33.3872 33.4397 33.1836 33.3245 32.8875 33.2697C32.7887 33.2587 32.69 33.2532 32.5913 33.2532Z"/>
<path d="M48.3943 35.4912L48.4868 35.3431L49.5788 35.8861L49.4863 36.0342C49.4492 36.0891 49.3999 36.1658 49.3382 36.2646C49.2888 36.3633 49.2518 36.4291 49.2272 36.462C48.9557 36.846 48.7398 37.1422 48.5794 37.3507C48.4313 37.5481 48.1722 37.8388 47.802 38.2228C47.4442 38.6177 47.1111 38.9194 46.8026 39.1279C46.4942 39.3473 46.1117 39.5447 45.6551 39.7203C45.1986 39.9068 44.7359 40 44.267 40C44.045 40 43.8167 39.9835 43.5823 39.9506L43.3972 39.8848C42.3361 39.3692 41.8055 38.4751 41.8055 37.2026C41.8055 36.6101 41.9227 35.9135 42.1571 35.1127C42.0091 35.1017 41.8425 35.0578 41.6574 34.981C41.2379 34.8275 40.8863 34.5861 40.6025 34.257C40.3187 33.9169 40.146 33.533 40.0843 33.1051C40.0226 32.9406 39.9917 32.7431 39.9917 32.5127C39.9917 31.7119 40.22 30.8617 40.6765 29.9621C40.8369 29.6659 40.985 29.4136 41.1207 29.2051C41.898 28.1739 42.6322 27.3731 43.3231 26.8026C44.0264 26.2212 44.9148 25.6836 45.9883 25.19L46.562 26.1773C45.5873 26.6271 44.7914 27.1098 44.1745 27.6254C43.5576 28.141 42.8913 28.865 42.1757 29.7975C42.1386 29.8634 42.077 29.9676 41.9906 30.1102C41.9165 30.2528 41.8549 30.3625 41.8055 30.4393C41.4353 31.1633 41.2503 31.8545 41.2503 32.5127C41.2503 32.6334 41.2688 32.7595 41.3058 32.8912C41.4045 33.4287 41.6821 33.7853 42.1386 33.9608C42.2744 34.0047 42.3978 34.0321 42.5088 34.0431C42.5458 33.9663 42.589 33.8621 42.6384 33.7304L43.0825 32.7266C43.3046 32.2439 43.4774 31.8929 43.6008 31.6735C43.6378 31.6186 43.6933 31.5254 43.7673 31.3937C43.8537 31.2511 43.9216 31.1469 43.9709 31.0811C44.9703 29.4904 46.1302 28.4537 47.4504 27.971L47.5429 27.9545C47.6663 27.9216 47.802 27.9051 47.9501 27.9051C48.2586 27.9051 48.5239 27.971 48.7459 28.1026C49.0297 28.2562 49.2025 28.4756 49.2642 28.7608L49.2827 28.876V29.0241C49.2827 29.0461 49.2827 29.0899 49.2827 29.1558C49.2827 29.2106 49.2827 29.2545 49.2827 29.2874C49.2827 29.5397 49.2333 29.7482 49.1346 29.9127C49.0729 30.0663 48.9557 30.2967 48.783 30.6039C48.0797 31.8435 47.1296 32.8692 45.9328 33.6811C45.6736 33.8566 45.4269 34.0047 45.1924 34.1254C45.0937 34.1692 45.0197 34.2131 44.9703 34.257C44.847 34.3338 44.7112 34.4106 44.5632 34.4874C44.3904 34.5751 44.1807 34.6629 43.9339 34.7507C43.8352 34.8165 43.6871 34.8933 43.4897 34.981C43.2059 35.9355 43.064 36.6815 43.064 37.219C43.064 38.0089 43.3478 38.5574 43.9154 38.8646C44.0264 38.8755 44.1375 38.881 44.2485 38.881C44.6434 38.881 45.0197 38.7987 45.3775 38.6342C45.7477 38.4696 46.0993 38.2283 46.4325 37.9101C46.7779 37.592 47.0741 37.2848 47.3208 36.9886C47.5676 36.6815 47.8452 36.3085 48.1537 35.8696C48.166 35.8587 48.1969 35.8093 48.2462 35.7215C48.3079 35.6228 48.3573 35.546 48.3943 35.4912ZM44.2485 33.138L44.119 33.4342C44.1313 33.4232 44.1498 33.4123 44.1745 33.4013C44.1992 33.3794 44.2177 33.3629 44.23 33.3519C44.3287 33.2861 44.446 33.2203 44.5817 33.1545C44.7297 33.0777 44.9333 32.9515 45.1924 32.776C46.1919 32.1178 47.0186 31.2237 47.6725 30.0937C47.7959 29.8634 47.9008 29.6549 47.9871 29.4684L48.0427 29.4026V29.1064V29.0077C48.0303 29.0186 47.9748 29.0241 47.8761 29.0241C46.889 29.3971 45.9513 30.2638 45.0629 31.6241C45.0259 31.7009 44.9642 31.8051 44.8778 31.9368C44.7914 32.0684 44.7359 32.1507 44.7112 32.1836C44.5632 32.4688 44.4089 32.787 44.2485 33.138ZM54.6129 27.1317L51.9663 32.5456L54.6129 37.9595L53.4655 38.4038L50.5967 32.5456L53.4655 26.6874L54.6129 27.1317Z"/>
</mask>
<path d="M16.5842 7.7949C16.6089 8.96873 16.5719 9.95058 16.4732 10.7405C16.2881 12.2105 15.8871 13.4227 15.2701 14.3771C14.7272 15.2219 13.9252 15.8527 12.8641 16.2695C11.9757 16.6316 10.964 16.8126 9.82883 16.8126C8.669 16.8126 7.58938 16.5219 6.58995 15.9404C5.60286 15.37 4.87489 14.613 4.40602 13.6695C4.19627 13.2307 4.03587 12.7261 3.92482 12.1556C3.81377 11.5852 3.74591 11.1134 3.72123 10.7405C3.70889 10.3675 3.70272 9.85734 3.70272 9.21008C3.70272 8.96873 3.70272 8.79321 3.70272 8.6835C3.69038 7.16959 3.69655 5.32656 3.72123 3.15442H2.03702V2.00253H6.73801V3.15442H5.01678C4.9921 5.33753 4.98594 7.17507 4.99827 8.66705C4.99827 8.78772 4.99827 8.96873 4.99827 9.21008C4.99827 9.82443 5.00444 10.3016 5.01678 10.6417C5.04146 10.9818 5.09698 11.4042 5.18335 11.9088C5.26972 12.4025 5.40545 12.8358 5.59053 13.2088C5.96068 13.9438 6.5406 14.5362 7.33026 14.986C8.10759 15.4358 8.94045 15.6607 9.82883 15.6607C10.4704 15.6607 11.0503 15.5949 11.5686 15.4632C12.0991 15.3425 12.531 15.178 12.8641 14.9695C13.1973 14.7721 13.4625 14.5801 13.66 14.3936C13.8574 14.2071 14.0239 14.0096 14.1597 13.8012C14.6779 12.9894 15.0172 11.9253 15.1776 10.6088C15.2763 9.86282 15.3133 8.93034 15.2886 7.81136C15.2886 7.71262 15.2886 7.64132 15.2886 7.59744C15.264 6.67592 15.2146 5.91348 15.1406 5.31011C15.0295 4.39956 14.7149 3.81265 14.1967 3.54936C13.8142 3.35189 13.37 3.2751 12.8641 3.31898C12.3953 3.35189 11.8894 3.47805 11.3465 3.69746C10.4581 4.04851 9.68693 4.50378 9.03299 5.06327C8.29267 5.69956 7.84848 6.20968 7.70042 6.59364C7.62639 6.80208 7.62639 6.93921 7.70042 7.00503C7.82381 7.10377 8.11993 7.06537 8.5888 6.88984C8.98363 6.73626 9.60056 6.41263 10.4396 5.91896C11.1922 5.46918 11.7105 5.20589 11.9942 5.1291C12.6605 4.9426 13.1911 5.01391 13.5859 5.34302C13.9067 5.60631 14.0054 5.96285 13.882 6.41263C13.8204 6.6101 13.7155 6.80757 13.5674 7.00503C13.4317 7.19153 13.2466 7.38351 13.0122 7.58098C12.7777 7.76748 12.5803 7.91558 12.4199 8.02528C12.2595 8.13498 12.0374 8.28308 11.7536 8.46958C11.5316 8.6122 11.3773 8.71642 11.2909 8.78224C11.2416 8.81515 11.1367 8.88097 10.9763 8.97971C10.6185 9.19911 10.3594 9.37464 10.199 9.50628C10.0633 9.61599 9.95838 9.70924 9.88435 9.78603C9.9337 9.80797 9.98923 9.82443 10.0509 9.8354C10.1866 9.86831 10.4026 9.9067 10.6987 9.95058C10.9825 9.99447 11.1799 10.0274 11.2909 10.0493C11.9572 10.2358 12.315 10.554 12.3644 11.0037C12.4014 11.2999 12.2719 11.6016 11.9757 11.9088C11.7907 12.0953 11.5316 12.2928 11.1984 12.5012C10.8406 12.7426 10.31 13.0333 9.60673 13.3733C9.47101 13.4392 9.37847 13.4831 9.32911 13.505C9.16871 13.5928 8.92811 13.7189 8.60731 13.8835L7.95953 12.8797C8.28033 12.7151 8.52094 12.5945 8.68134 12.5177C8.73069 12.4847 8.8294 12.4354 8.97746 12.3696C9.55738 12.0843 9.9954 11.8485 10.2915 11.662C10.6 11.4755 10.8283 11.3109 10.9763 11.1683C10.9516 11.1683 10.927 11.1628 10.9023 11.1518C10.8529 11.1409 10.711 11.1189 10.4766 11.086C10.0571 11.0202 9.74246 10.9599 9.5327 10.905C9.03916 10.7514 8.72452 10.5156 8.5888 10.1974C8.46541 9.93413 8.49009 9.65438 8.66283 9.35818C8.76154 9.17169 8.92194 8.98519 9.14404 8.79869C9.37847 8.60123 9.74246 8.34891 10.236 8.04174C10.3717 7.95397 10.4581 7.89912 10.4951 7.87718C10.5938 7.80039 10.7604 7.69068 10.9948 7.54807C11.5007 7.21896 11.8585 6.96664 12.0683 6.79111C12.3521 6.56073 12.531 6.35778 12.605 6.18225C12.531 6.19322 12.4569 6.20968 12.3829 6.23162C12.2225 6.2755 11.8092 6.48942 11.1429 6.87339C10.2422 7.41094 9.56355 7.76748 9.10702 7.943C8.68751 8.09659 8.31735 8.18435 7.99655 8.20629C7.52768 8.22823 7.13902 8.11304 6.83055 7.86072C6.60846 7.67423 6.4604 7.43836 6.38636 7.15313C6.32467 6.8679 6.35552 6.56622 6.4789 6.24808C6.68866 5.67762 7.23773 5.00842 8.1261 4.24049C8.89109 3.58227 9.78564 3.05021 10.8097 2.6443C11.5007 2.37004 12.1485 2.21097 12.7531 2.16709C13.5304 2.11224 14.2214 2.2384 14.826 2.54557C15.739 3.00632 16.2757 3.88944 16.4361 5.19492C16.5102 5.8312 16.5595 6.62656 16.5842 7.58098C16.5842 7.62486 16.5842 7.69617 16.5842 7.7949Z" stroke="black" stroke-width="2.32" mask="url(#path-1-outside-1_13616_114689)"/>
<path d="M21.8722 16.8126L30.2748 2.00253L31.4408 2.52911L24.3708 15.0189C24.4695 14.997 24.7965 14.9202 25.3517 14.7885C25.907 14.6679 26.308 14.5801 26.5547 14.5252C26.8138 14.4704 27.147 14.4101 27.5542 14.3442C27.9613 14.2894 28.2945 14.262 28.5536 14.262C29.6887 14.262 30.608 14.5746 31.3113 15.1999L31.3853 15.2657C31.6321 15.156 31.9344 14.9695 32.2922 14.7063L33.125 15.6278C32.4094 16.1434 31.8418 16.4286 31.4223 16.4835H31.3113C31.0398 16.4835 30.7375 16.3354 30.4044 16.0392C29.9478 15.6333 29.3741 15.4303 28.6831 15.4303C28.1649 15.4303 27.4554 15.5181 26.5547 15.6936C25.654 15.8691 24.8952 16.0337 24.2783 16.1873C23.6737 16.3518 23.3467 16.4451 23.2973 16.467L21.8722 16.8126ZM24.5929 10.0329L21.7242 8.25566L22.483 7.30123L25.3517 9.07844L24.5929 10.0329ZM26.9989 5.96833L24.1302 4.19113L24.889 3.2367L27.7577 5.01391L26.9989 5.96833Z" stroke="black" stroke-width="2.32" mask="url(#path-1-outside-1_13616_114689)"/>
<path d="M45.8639 12.3037L45.9565 12.1556L47.0484 12.6987L46.9559 12.8468C46.9189 12.9016 46.8695 12.9784 46.8078 13.0771C46.7585 13.1759 46.7215 13.2417 46.6968 13.2746C46.4253 13.6586 46.2094 13.9548 46.049 14.1632C45.9009 14.3607 45.6418 14.6514 45.2717 15.0354C44.9139 15.4303 44.5807 15.732 44.2723 15.9404C43.9638 16.1598 43.5813 16.3573 43.1248 16.5328C42.6682 16.7193 42.2055 16.8126 41.7367 16.8126C41.5146 16.8126 41.2863 16.7961 41.0519 16.7632L40.8668 16.6974C39.8057 16.1818 39.2751 15.2877 39.2751 14.0151C39.2751 13.4227 39.3923 12.7261 39.6268 11.9253C39.4787 11.9143 39.3121 11.8704 39.1271 11.7936C38.7076 11.64 38.3559 11.3987 38.0721 11.0696C37.7883 10.7295 37.6156 10.3455 37.5539 9.91767C37.4922 9.75312 37.4614 9.55565 37.4614 9.32527C37.4614 8.52443 37.6896 7.67423 38.1461 6.77466C38.3065 6.47846 38.4546 6.22614 38.5903 6.0177C39.3677 4.98648 40.1018 4.18564 40.7928 3.61518C41.4961 3.03375 42.3844 2.4962 43.4579 2.00253L44.0316 2.98987C43.0569 3.43965 42.2611 3.92235 41.6441 4.43796C41.0272 4.95357 40.3609 5.67762 39.6453 6.6101C39.6083 6.67592 39.5466 6.78014 39.4602 6.92276C39.3862 7.06537 39.3245 7.17508 39.2751 7.25187C38.905 7.97591 38.7199 8.66705 38.7199 9.32527C38.7199 9.44595 38.7384 9.57211 38.7754 9.70375C38.8741 10.2413 39.1517 10.5978 39.6083 10.7734C39.744 10.8172 39.8674 10.8447 39.9784 10.8556C40.0154 10.7789 40.0586 10.6746 40.108 10.543L40.5522 9.5392C40.7743 9.0565 40.947 8.70545 41.0704 8.48604C41.1074 8.43119 41.1629 8.33794 41.237 8.20629C41.3233 8.06368 41.3912 7.95946 41.4405 7.89364C42.44 6.30293 43.5998 5.26623 44.92 4.78353L45.0126 4.76707C45.136 4.73416 45.2717 4.71771 45.4197 4.71771C45.7282 4.71771 45.9935 4.78353 46.2156 4.91517C46.4994 5.06876 46.6721 5.28817 46.7338 5.5734L46.7523 5.68859V5.83669C46.7523 5.85863 46.7523 5.90251 46.7523 5.96833C46.7523 6.02318 46.7523 6.06706 46.7523 6.09998C46.7523 6.35229 46.703 6.56073 46.6042 6.72529C46.5426 6.87887 46.4253 7.10925 46.2526 7.41642C45.5493 8.65608 44.5992 9.68181 43.4024 10.4936C43.1433 10.6691 42.8965 10.8172 42.6621 10.9379C42.5634 10.9818 42.4893 11.0257 42.44 11.0696C42.3166 11.1464 42.1809 11.2232 42.0328 11.2999C41.8601 11.3877 41.6503 11.4755 41.4035 11.5632C41.3048 11.6291 41.1568 11.7058 40.9593 11.7936C40.6756 12.748 40.5337 13.494 40.5337 14.0316C40.5337 14.8214 40.8175 15.37 41.385 15.6771C41.4961 15.6881 41.6071 15.6936 41.7182 15.6936C42.113 15.6936 42.4893 15.6113 42.8471 15.4468C43.2173 15.2822 43.569 15.0409 43.9021 14.7227C44.2476 14.4046 44.5437 14.0974 44.7905 13.8012C45.0372 13.494 45.3149 13.121 45.6233 12.6822C45.6357 12.6712 45.6665 12.6219 45.7159 12.5341C45.7776 12.4354 45.8269 12.3586 45.8639 12.3037ZM41.7182 9.95058L41.5886 10.2468C41.6009 10.2358 41.6195 10.2248 41.6441 10.2139C41.6688 10.1919 41.6873 10.1755 41.6997 10.1645C41.7984 10.0987 41.9156 10.0329 42.0513 9.96704C42.1994 9.89025 42.403 9.76409 42.6621 9.58856C43.6615 8.93034 44.4882 8.03625 45.1421 6.9063C45.2655 6.67592 45.3704 6.46748 45.4568 6.28099L45.5123 6.21517V5.91896V5.82023C45.4999 5.8312 45.4444 5.83669 45.3457 5.83669C44.3586 6.20968 43.4209 7.07634 42.5325 8.43667C42.4955 8.51346 42.4338 8.61768 42.3474 8.74933C42.2611 8.88097 42.2055 8.96325 42.1809 8.99616C42.0328 9.28139 41.8786 9.59953 41.7182 9.95058ZM52.0826 3.94429L49.4359 9.35818L52.0826 14.7721L50.9351 15.2164L48.0664 9.35818L50.9351 3.49999L52.0826 3.94429Z" stroke="black" stroke-width="2.32" mask="url(#path-1-outside-1_13616_114689)"/>
<path d="M61.6675 16.8126C61.6058 16.8126 61.5441 16.8126 61.4824 16.8126C60.8778 16.8126 60.2732 16.6809 59.6686 16.4176C58.3978 15.8691 57.6698 14.8982 57.4847 13.505L58.7803 13.3733C58.9036 14.3278 59.3787 14.9915 60.2054 15.3645C60.6249 15.5619 61.0506 15.6607 61.4824 15.6607H61.5009H61.5194C62.6299 15.6936 63.4689 15.3919 64.0365 14.7556C64.3326 14.4375 64.5115 14.1303 64.5732 13.8341V13.8177C64.6843 13.2911 64.7151 12.9126 64.6658 12.6822C64.6164 12.4409 64.4868 12.216 64.2771 12.0075C64.0303 11.7662 63.5306 11.5632 62.778 11.3987C62.3214 11.2999 61.9944 11.2067 61.797 11.1189C61.3652 10.9324 61.0999 10.6527 61.0012 10.2797C60.9272 10.0164 60.9765 9.77506 61.1493 9.55565C61.322 9.32527 61.5996 9.16072 61.9821 9.06198C62.3646 8.95228 62.889 8.85903 63.5553 8.78224C63.7774 8.7603 63.9131 8.74384 63.9625 8.73287C63.9501 8.71093 63.9378 8.68899 63.9254 8.66705C63.8638 8.66705 63.7589 8.66705 63.6108 8.66705C63.0186 8.65608 62.5682 8.61768 62.2597 8.55186C61.9636 8.47507 61.723 8.36536 61.5379 8.22275C61.2665 8.01431 61.1246 7.75102 61.1122 7.43288C61.0876 6.93921 61.285 6.57719 61.7045 6.34681C61.9019 6.23711 62.2104 6.14934 62.6299 6.08352C62.815 6.06158 62.9384 6.04512 63 6.03415C63.4319 5.91348 63.7095 5.76538 63.8329 5.58985C63.9193 5.44724 63.9378 5.22783 63.8884 4.93163C63.802 4.32826 63.4257 3.8675 62.7594 3.54936C62.2165 3.30801 61.5996 3.17636 60.9087 3.15442C59.9956 3.13248 59.2121 3.23122 58.5582 3.45062C57.9906 3.63712 57.5341 3.91138 57.1886 4.2734C56.8184 4.65737 56.5778 5.12361 56.4668 5.67213C56.3557 6.18774 56.3681 6.74723 56.5038 7.3506L55.2267 7.56452C55.0663 6.82951 55.054 6.1274 55.1897 5.45821C55.3501 4.70125 55.6833 4.05948 56.1891 3.5329C56.6827 3.01729 57.3181 2.62784 58.0955 2.36456C58.9098 2.10127 59.8599 1.98059 60.9457 2.00253C61.8341 2.03544 62.6361 2.21097 63.3517 2.52911C64.4251 3.02278 65.0359 3.77425 65.184 4.78353C65.258 5.34302 65.1778 5.80378 64.9434 6.1658C64.6596 6.60461 64.1352 6.92824 63.3702 7.13668C63.2468 7.16959 63.0679 7.19702 62.8335 7.21896C62.6114 7.25187 62.4695 7.27929 62.4078 7.30123C62.4078 7.32318 62.4078 7.34512 62.4078 7.36706C62.4818 7.41094 62.6114 7.44385 62.7965 7.46579C62.9692 7.48773 63.2468 7.50419 63.6293 7.51516C64.0365 7.51516 64.3079 7.54258 64.4437 7.59744C64.7028 7.70714 64.9125 7.88267 65.0729 8.12401C65.2333 8.37633 65.3012 8.62865 65.2765 8.88097C65.2518 9.12232 65.1531 9.32527 64.9804 9.48983C64.82 9.65438 64.5979 9.76957 64.3141 9.8354C64.2154 9.85734 64.018 9.89025 63.7219 9.93413C63.2777 9.97801 62.9507 10.0219 62.7409 10.0658C62.6422 10.0877 62.5559 10.1097 62.4818 10.1316C62.5929 10.1645 62.7965 10.2139 63.0926 10.2797C63.401 10.3455 63.6478 10.4059 63.8329 10.4607C64.018 10.5046 64.2524 10.5978 64.5362 10.7405C64.82 10.8831 65.0544 11.0476 65.2395 11.2341C65.5233 11.5303 65.7207 11.8485 65.8317 12.1885C65.9551 12.5286 66.0107 12.8358 65.9983 13.1101C65.986 13.3843 65.9366 13.7025 65.8503 14.0645C65.7392 14.5582 65.4739 15.0299 65.0544 15.4797C64.2401 16.3683 63.1111 16.8126 61.6675 16.8126Z" stroke="black" stroke-width="2.32" mask="url(#path-1-outside-1_13616_114689)"/>
<path d="M10.4026 35.4912L10.4951 35.3431L11.5871 35.8861L11.4945 36.0342C11.4575 36.0891 11.4082 36.1658 11.3465 36.2646C11.2971 36.3633 11.2601 36.4291 11.2354 36.462C10.964 36.846 10.748 37.1422 10.5876 37.3507C10.4396 37.5481 10.1805 37.8388 9.81032 38.2228C9.4525 38.6177 9.11936 38.9194 8.81089 39.1279C8.50243 39.3473 8.11993 39.5447 7.66341 39.7203C7.20688 39.9068 6.74418 40 6.27532 40C6.05322 40 5.82496 39.9835 5.59053 39.9506L5.40545 39.8848C4.34433 39.3692 3.81377 38.4751 3.81377 37.2026C3.81377 36.6101 3.93099 35.9135 4.16542 35.1127C4.01736 35.1017 3.85079 35.0578 3.66571 34.981C3.2462 34.8275 2.89455 34.5861 2.61076 34.257C2.32697 33.9169 2.15423 33.533 2.09254 33.1051C2.03085 32.9406 2 32.7431 2 32.5127C2 31.7119 2.22826 30.8617 2.68479 29.9621C2.84519 29.6659 2.99326 29.4136 3.12898 29.2051C3.90631 28.1739 4.64046 27.3731 5.33142 26.8026C6.03471 26.2212 6.92309 25.6836 7.99655 25.19L8.57029 26.1773C7.59554 26.6271 6.79971 27.1098 6.18278 27.6254C5.56585 28.141 4.89957 28.865 4.18393 29.7975C4.14691 29.8634 4.08522 29.9676 3.99885 30.1102C3.92482 30.2528 3.86313 30.3625 3.81377 30.4393C3.44361 31.1633 3.25853 31.8545 3.25853 32.5127C3.25853 32.6334 3.27704 32.7595 3.31406 32.8912C3.41277 33.4287 3.69039 33.7853 4.14691 33.9608C4.28264 34.0047 4.40602 34.0321 4.51707 34.0431C4.55409 33.9663 4.59727 33.8621 4.64662 33.7304L5.09081 32.7266C5.31291 32.2439 5.48565 31.8929 5.60903 31.6735C5.64605 31.6186 5.70157 31.5254 5.7756 31.3937C5.86197 31.2511 5.92984 31.1469 5.97919 31.0811C6.97862 29.4904 8.13844 28.4537 9.45867 27.971L9.55121 27.9545C9.67459 27.9216 9.81032 27.9051 9.95838 27.9051C10.2668 27.9051 10.5321 27.971 10.7542 28.1026C11.038 28.2562 11.2107 28.4756 11.2724 28.7608L11.2909 28.876V29.0241C11.2909 29.0461 11.2909 29.0899 11.2909 29.1558C11.2909 29.2106 11.2909 29.2545 11.2909 29.2874C11.2909 29.5397 11.2416 29.7482 11.1429 29.9127C11.0812 30.0663 10.964 30.2967 10.7912 30.6039C10.0879 31.8435 9.13787 32.8692 7.94103 33.6811C7.68191 33.8566 7.43514 34.0047 7.20071 34.1254C7.102 34.1692 7.02797 34.2131 6.97862 34.257C6.85523 34.3338 6.71951 34.4106 6.57144 34.4874C6.3987 34.5751 6.18895 34.6629 5.94218 34.7507C5.84347 34.8165 5.6954 34.8933 5.49799 34.981C5.2142 35.9355 5.07231 36.6815 5.07231 37.219C5.07231 38.0089 5.35609 38.5574 5.92367 38.8646C6.03471 38.8755 6.14576 38.881 6.25681 38.881C6.65164 38.881 7.02797 38.7987 7.38579 38.6342C7.75595 38.4696 8.1076 38.2283 8.44074 37.9101C8.78622 37.592 9.08234 37.2848 9.32911 36.9886C9.57589 36.6815 9.8535 36.3085 10.162 35.8696C10.1743 35.8587 10.2052 35.8093 10.2545 35.7215C10.3162 35.6228 10.3656 35.546 10.4026 35.4912ZM6.25681 33.138L6.12725 33.4342C6.13959 33.4232 6.1581 33.4123 6.18278 33.4013C6.20745 33.3794 6.22596 33.3629 6.2383 33.3519C6.33701 33.2861 6.45423 33.2203 6.58995 33.1545C6.73801 33.0777 6.9416 32.9515 7.20071 32.776C8.20013 32.1178 9.02682 31.2237 9.68076 30.0937C9.80415 29.8634 9.90903 29.6549 9.9954 29.4684L10.0509 29.4026V29.1064V29.0077C10.0386 29.0186 9.98306 29.0241 9.88435 29.0241C8.89726 29.3971 7.95953 30.2638 7.07116 31.6241C7.03414 31.7009 6.97245 31.8051 6.88608 31.9368C6.79971 32.0684 6.74418 32.1507 6.71951 32.1836C6.57144 32.4688 6.41721 32.787 6.25681 33.138ZM16.6212 27.1317L13.9746 32.5456L16.6212 37.9595L15.4737 38.4038L12.605 32.5456L15.4737 26.6874L16.6212 27.1317Z" stroke="black" stroke-width="2.32" mask="url(#path-1-outside-1_13616_114689)"/>
<path d="M22.3935 39.9177L28.5011 27.4608L20.3946 30.7026L19.8579 29.6659L31.0367 25.19L24.781 37.9266L29.7781 36.3304C29.7041 36.1768 29.6486 36.0123 29.6116 35.8367C29.4635 35.2224 29.5005 34.63 29.7226 34.0595C29.957 33.4891 30.3519 33.0009 30.9071 32.595C31.1909 32.3975 31.5302 32.2604 31.925 32.1836C32.3322 32.0958 32.7271 32.0849 33.1096 32.1507C33.8005 32.2604 34.3064 32.5566 34.6272 33.0393C35.059 33.6975 35.1269 34.3338 34.8308 34.9481C34.5223 35.5954 33.8252 36.1494 32.7394 36.6101C32.4556 36.7199 32.1595 36.8241 31.851 36.9228C32.1225 37.0983 32.4186 37.219 32.7394 37.2848C33.3193 37.4274 33.8745 37.4274 34.4051 37.2848C34.948 37.1422 35.3552 36.8844 35.6266 36.5114L36.7186 37.1203C36.2867 37.7456 35.639 38.1679 34.7753 38.3874C34.0103 38.5848 33.2206 38.5903 32.4063 38.4038C31.6289 38.2283 30.9811 37.8717 30.4629 37.3342L22.3935 39.9177ZM32.5913 33.2532C32.2335 33.2532 31.9436 33.3355 31.7215 33.5C31.339 33.7743 31.0799 34.1034 30.9441 34.4874C30.8084 34.8494 30.7837 35.2169 30.8701 35.5899C30.9071 35.7106 30.9503 35.8312 30.9997 35.9519C31.2588 35.8971 31.5487 35.8148 31.8695 35.7051C32.1903 35.5844 32.5358 35.4144 32.906 35.195C33.2761 34.9756 33.5167 34.7452 33.6278 34.5038C33.7635 34.2405 33.7203 33.9443 33.4982 33.6152C33.3872 33.4397 33.1836 33.3245 32.8875 33.2697C32.7887 33.2587 32.69 33.2532 32.5913 33.2532Z" stroke="black" stroke-width="2.32" mask="url(#path-1-outside-1_13616_114689)"/>
<path d="M48.3943 35.4912L48.4868 35.3431L49.5788 35.8861L49.4863 36.0342C49.4492 36.0891 49.3999 36.1658 49.3382 36.2646C49.2888 36.3633 49.2518 36.4291 49.2272 36.462C48.9557 36.846 48.7398 37.1422 48.5794 37.3507C48.4313 37.5481 48.1722 37.8388 47.802 38.2228C47.4442 38.6177 47.1111 38.9194 46.8026 39.1279C46.4942 39.3473 46.1117 39.5447 45.6551 39.7203C45.1986 39.9068 44.7359 40 44.267 40C44.045 40 43.8167 39.9835 43.5823 39.9506L43.3972 39.8848C42.3361 39.3692 41.8055 38.4751 41.8055 37.2026C41.8055 36.6101 41.9227 35.9135 42.1571 35.1127C42.0091 35.1017 41.8425 35.0578 41.6574 34.981C41.2379 34.8275 40.8863 34.5861 40.6025 34.257C40.3187 33.9169 40.146 33.533 40.0843 33.1051C40.0226 32.9406 39.9917 32.7431 39.9917 32.5127C39.9917 31.7119 40.22 30.8617 40.6765 29.9621C40.8369 29.6659 40.985 29.4136 41.1207 29.2051C41.898 28.1739 42.6322 27.3731 43.3231 26.8026C44.0264 26.2212 44.9148 25.6836 45.9883 25.19L46.562 26.1773C45.5873 26.6271 44.7914 27.1098 44.1745 27.6254C43.5576 28.141 42.8913 28.865 42.1757 29.7975C42.1386 29.8634 42.077 29.9676 41.9906 30.1102C41.9165 30.2528 41.8549 30.3625 41.8055 30.4393C41.4353 31.1633 41.2503 31.8545 41.2503 32.5127C41.2503 32.6334 41.2688 32.7595 41.3058 32.8912C41.4045 33.4287 41.6821 33.7853 42.1386 33.9608C42.2744 34.0047 42.3978 34.0321 42.5088 34.0431C42.5458 33.9663 42.589 33.8621 42.6384 33.7304L43.0825 32.7266C43.3046 32.2439 43.4774 31.8929 43.6008 31.6735C43.6378 31.6186 43.6933 31.5254 43.7673 31.3937C43.8537 31.2511 43.9216 31.1469 43.9709 31.0811C44.9703 29.4904 46.1302 28.4537 47.4504 27.971L47.5429 27.9545C47.6663 27.9216 47.802 27.9051 47.9501 27.9051C48.2586 27.9051 48.5239 27.971 48.7459 28.1026C49.0297 28.2562 49.2025 28.4756 49.2642 28.7608L49.2827 28.876V29.0241C49.2827 29.0461 49.2827 29.0899 49.2827 29.1558C49.2827 29.2106 49.2827 29.2545 49.2827 29.2874C49.2827 29.5397 49.2333 29.7482 49.1346 29.9127C49.0729 30.0663 48.9557 30.2967 48.783 30.6039C48.0797 31.8435 47.1296 32.8692 45.9328 33.6811C45.6736 33.8566 45.4269 34.0047 45.1924 34.1254C45.0937 34.1692 45.0197 34.2131 44.9703 34.257C44.847 34.3338 44.7112 34.4106 44.5632 34.4874C44.3904 34.5751 44.1807 34.6629 43.9339 34.7507C43.8352 34.8165 43.6871 34.8933 43.4897 34.981C43.2059 35.9355 43.064 36.6815 43.064 37.219C43.064 38.0089 43.3478 38.5574 43.9154 38.8646C44.0264 38.8755 44.1375 38.881 44.2485 38.881C44.6434 38.881 45.0197 38.7987 45.3775 38.6342C45.7477 38.4696 46.0993 38.2283 46.4325 37.9101C46.7779 37.592 47.0741 37.2848 47.3208 36.9886C47.5676 36.6815 47.8452 36.3085 48.1537 35.8696C48.166 35.8587 48.1969 35.8093 48.2462 35.7215C48.3079 35.6228 48.3573 35.546 48.3943 35.4912ZM44.2485 33.138L44.119 33.4342C44.1313 33.4232 44.1498 33.4123 44.1745 33.4013C44.1992 33.3794 44.2177 33.3629 44.23 33.3519C44.3287 33.2861 44.446 33.2203 44.5817 33.1545C44.7297 33.0777 44.9333 32.9515 45.1924 32.776C46.1919 32.1178 47.0186 31.2237 47.6725 30.0937C47.7959 29.8634 47.9008 29.6549 47.9871 29.4684L48.0427 29.4026V29.1064V29.0077C48.0303 29.0186 47.9748 29.0241 47.8761 29.0241C46.889 29.3971 45.9513 30.2638 45.0629 31.6241C45.0259 31.7009 44.9642 31.8051 44.8778 31.9368C44.7914 32.0684 44.7359 32.1507 44.7112 32.1836C44.5632 32.4688 44.4089 32.787 44.2485 33.138ZM54.6129 27.1317L51.9663 32.5456L54.6129 37.9595L53.4655 38.4038L50.5967 32.5456L53.4655 26.6874L54.6129 27.1317Z" stroke="black" stroke-width="2.32" mask="url(#path-1-outside-1_13616_114689)"/>
</svg>
