<svg width="40" height="40" viewBox="0 0 40 40" fill="none" xmlns="http://www.w3.org/2000/svg">
<path d="M16.1903 35.2384H23.8093M19.9998 4.76218V2.85742M29.5236 8.57171L31.4284 6.66694M10.476 8.57171L8.57124 6.66694M29.5236 25.7146L31.4284 27.6193M10.476 25.7146L8.57124 27.6193M6.66648 16.1908H4.76172M35.2379 16.1908H33.3331M19.9998 9.52409C21.9337 9.5229 23.8112 10.1758 25.3272 11.3766C26.8432 12.5774 27.9085 14.2555 28.3501 16.1384C28.7916 18.0212 28.5835 19.998 27.7595 21.7476C26.9355 23.4972 25.544 24.9167 23.8112 25.7755L23.8093 27.6193C23.8093 28.6297 23.408 29.5986 22.6936 30.3131C21.9791 31.0275 21.0102 31.4288 19.9998 31.4288C18.9895 31.4288 18.0205 31.0275 17.3061 30.3131C16.5917 29.5986 16.1903 28.6297 16.1903 27.6193L16.1903 25.7755C14.4576 24.9168 13.0663 23.4975 12.2422 21.7481C11.4182 19.9987 11.2099 18.022 11.6513 16.1393C12.0926 14.2566 13.1576 12.5784 14.6732 11.3774C16.1889 10.1765 18.0661 9.52333 19.9998 9.52409V9.52409Z" stroke="#272727" stroke-width="2.53092" stroke-linecap="round" stroke-linejoin="round"/>
</svg>
