<svg width="306" height="447" viewBox="0 0 306 447" fill="none" xmlns="http://www.w3.org/2000/svg">
<g clip-path="url(#clip0_12617_111413)">
<path d="M82.3583 223.115C99.9432 184.973 146.476 167.886 184.731 185.524C217.503 200.633 234.83 236.833 228.1 270.883C226.261 279.902 216.633 285.021 208.345 281.2L82.3583 223.115ZM82.3583 223.115C64.7734 261.256 18.2402 278.343 -20.0148 260.706C-52.7865 245.597 -70.1134 209.396 -63.3829 175.346C-61.5442 166.328 -51.9167 161.208 -43.6281 165.03L82.3583 223.115ZM82.3583 223.115C44.1033 205.478 26.8783 158.995 44.4632 120.854C59.5275 88.1793 95.7587 70.9676 129.89 77.7622C138.93 79.6177 144.081 89.2382 140.271 97.5022L82.3583 223.115ZM82.3583 223.115C120.613 240.752 137.838 287.234 120.254 325.376C105.189 358.05 68.958 375.262 34.8268 368.467C25.7864 366.612 20.6354 356.991 24.4454 348.727L82.3583 223.115Z" fill="#5DF46C"/>
</g>
<defs>
<clipPath id="clip0_12617_111413">
<rect width="337" height="336" fill="white" transform="translate(-0.320312) rotate(24.7518)"/>
</clipPath>
</defs>
</svg>
