<svg width="583" height="582" viewBox="0 0 583 582" fill="none" xmlns="http://www.w3.org/2000/svg">
<g clip-path="url(#clip0_12617_111422)">
<path d="M294.044 290.671C326.62 253.306 384.92 248.565 423.285 280.547C456.581 308.302 465.397 355.733 446.954 393.149C442.444 402.155 430.881 404.739 423.314 398.431L294.044 290.671ZM398.406 159.196L290.968 288.078C253.473 255.403 248.57 197.114 280.448 158.873C308.115 125.684 355.543 117.005 393.041 135.553C402.082 140.097 404.683 151.666 398.406 159.196ZM159.106 183.393L288.376 291.154C255.8 328.519 197.499 333.259 159.135 301.278C125.839 273.522 117.023 226.09 135.467 188.674C139.978 179.669 151.54 177.086 159.106 183.393ZM291.452 293.746C328.947 326.422 333.85 384.71 301.972 422.951C274.306 456.14 226.878 464.819 189.38 446.272C180.339 441.729 177.737 430.158 184.014 422.628L291.452 293.746Z" fill="#50DC5E" stroke="black" stroke-width="4"/>
</g>
<defs>
<clipPath id="clip0_12617_111422">
<rect width="413.726" height="412.498" fill="white" transform="translate(264.379 0.0323486) rotate(39.8148)"/>
</clipPath>
</defs>
</svg>
