<svg width="53" height="53" viewBox="0 0 53 53" fill="none" xmlns="http://www.w3.org/2000/svg">
<g clip-path="url(#clip0_13615_114654)">
<path d="M13.8246 16.1015C13.3644 16.2766 12.9906 16.6008 12.7669 17.0191C12.5432 17.4373 12.4833 17.9237 12.5974 18.3956C12.7115 18.8675 12.9926 19.2958 13.3929 19.6077C13.7932 19.9196 14.288 20.0959 14.7932 20.1065C15.0839 20.1046 15.3697 20.0563 15.6387 19.9637C15.894 19.8636 16.124 19.7167 16.316 19.5309C16.5273 19.3471 16.6868 19.1161 16.7815 18.8567C16.9823 18.3575 16.9638 17.7931 16.73 17.2852C16.6123 17.0297 16.4436 16.7962 16.2336 16.5982C16.0235 16.4001 15.7763 16.2415 15.5062 16.1315C15.2361 16.0214 14.9485 15.9621 14.6599 15.957C14.3712 15.9518 14.0874 16.0009 13.8246 16.1015ZM19.3794 6.62535C19.922 6.84644 20.3609 7.25861 20.5994 7.77119C20.838 8.28378 20.8567 8.85478 20.6514 9.35859C20.4461 9.86241 20.0337 10.2578 19.5049 10.4577C18.976 10.6576 18.3741 10.6457 17.8314 10.4246C17.2888 10.2035 16.6868 10.1916 16.158 10.3915C15.6291 10.5914 15.2167 10.9868 15.0114 11.4906C14.8061 11.9944 14.8248 12.5654 15.0634 13.078C15.302 13.5906 15.7408 14.0028 16.2835 14.2239C17.361 14.6621 18.5267 14.8294 19.6633 14.7088C20.7999 14.5882 21.8674 14.184 22.7587 13.5368C23.6499 12.8897 24.3334 12.0223 24.7404 11.0219C25.1475 10.0216 25.2639 8.92339 25.0778 7.83776C24.8917 6.75213 24.4097 5.71729 23.6803 4.83722C22.9509 3.95715 21.9997 3.26286 20.9224 2.82409C19.845 2.38533 18.6794 2.21755 17.5427 2.33762C16.406 2.45769 15.3383 2.86138 14.4467 3.50812C14.2231 3.66982 14.0377 3.87358 13.9014 4.10769C13.765 4.3418 13.6803 4.60161 13.6521 4.87218C13.6239 5.14275 13.6528 5.41872 13.7371 5.6842C13.8214 5.94968 13.9595 6.19943 14.1434 6.41905C14.5123 6.85812 15.042 7.14985 15.6169 7.23056C16.1919 7.31128 16.7654 7.17445 17.2123 6.84991C17.5107 6.63347 17.8683 6.4987 18.2488 6.45927C18.6294 6.41983 19.0194 6.47713 19.3794 6.62535ZM43.1577 18.5284L30.8815 13.5267C30.3389 13.3056 29.7369 13.2937 29.2081 13.4936C28.6792 13.6935 28.2668 14.0889 28.0615 14.5927C27.8563 15.0965 27.875 15.6675 28.1135 16.1801C28.3521 16.6927 28.7909 17.1049 29.3336 17.3259L41.6097 22.3277C42.1523 22.5488 42.5912 22.9609 42.8298 23.4735C43.0683 23.9861 43.087 24.5571 42.8818 25.0609L35.3587 43.5253L33.2687 39.462C33.025 38.9803 32.6026 38.5945 32.0864 38.3823L14.1837 31.0881C13.6411 30.867 13.2022 30.4549 12.9637 29.9423C12.7251 29.4297 12.7064 28.8587 12.9117 28.3549L13.6856 26.4552C13.8909 25.9514 13.8722 25.3804 13.6337 24.8678C13.3951 24.3553 12.9562 23.9431 12.4136 23.722C11.871 23.5009 11.269 23.489 10.7402 23.6889C10.2113 23.8888 9.79888 24.2842 9.59361 24.788L8.81963 26.6876C8.20382 28.1991 8.25992 29.9121 8.97558 31.4498C9.69125 32.9876 11.0079 34.2241 12.6358 34.8874L29.7405 41.8564L33.7656 49.5433C33.9955 49.9992 34.3859 50.3705 34.8661 50.5897C35.1479 50.7012 35.4465 50.7627 35.7464 50.7712C36.1729 50.772 36.5837 50.6543 36.9284 50.4326C37.273 50.211 37.5364 49.895 37.6861 49.5237L46.9738 26.7282C47.5896 25.2167 47.5335 23.5037 46.8178 21.966C46.1022 20.4282 44.7856 19.1917 43.1577 18.5284Z" fill="#272727"/>
</g>
<defs>
<clipPath id="clip0_13615_114654">
<rect width="40" height="40" fill="white" transform="translate(15.0938) rotate(22.1677)"/>
</clipPath>
</defs>
</svg>
