<svg width="264" height="312" viewBox="0 0 264 312" fill="none" xmlns="http://www.w3.org/2000/svg">
<path d="M58.2172 309.843L58.925 310.549L59.6314 309.841L113.206 256.161L113.912 255.454L113.205 254.747L101.939 243.503L101.231 242.797L100.525 243.505L58.9002 285.211L17.194 243.587L16.4862 242.88L15.7798 243.588L4.53609 254.854L3.82968 255.561L4.53748 256.268L58.2172 309.843Z" fill="#101010" stroke="#F8E61B" stroke-width="2"/>
<path d="M58.2211 227.843L58.9289 228.549L59.6353 227.841L113.21 174.161L113.916 173.454L113.209 172.747L101.943 161.503L101.235 160.797L100.529 161.505L58.9041 203.211L17.1979 161.587L16.4901 160.88L15.7837 161.588L4.54 172.854L3.83359 173.561L4.54139 174.268L58.2211 227.843Z" fill="#101010" stroke="#F8E61B" stroke-width="2"/>
<path d="M58.227 148.843L58.9348 149.549L59.6412 148.841L113.216 95.1614L113.922 94.4536L113.214 93.7472L101.949 82.5035L101.241 81.7971L100.534 82.5049L58.9099 124.211L17.2038 82.5865L16.496 81.8801L15.7896 82.5879L4.54586 93.8537L3.83945 94.5615L4.54725 95.2679L58.227 148.843Z" fill="#101010" stroke="#F8E61B" stroke-width="2"/>
<path d="M60.2309 68.8426L60.9387 69.549L61.6451 68.8412L115.22 15.1615L115.926 14.4537L115.218 13.7473L103.953 2.50359L103.245 1.79718L102.538 2.50498L60.9138 44.2111L19.2077 2.58664L18.4999 1.88022L17.7935 2.58802L6.54977 13.8538L5.84335 14.5616L6.55115 15.268L60.2309 68.8426Z" fill="#101010" stroke="#F8E61B" stroke-width="2"/>
<path d="M205.535 10.345L204.827 9.63864L204.12 10.3465L153.345 61.2276L152.639 61.9354L153.346 62.6418L159.009 68.2927L159.717 68.9991L160.423 68.2913L204.841 23.7808L249.352 68.1988L250.06 68.9052L250.766 68.1973L256.417 62.5346L257.124 61.8267L256.416 61.1204L205.535 10.345Z" fill="#101010" stroke="#F8E61B" stroke-width="2"/>
<path d="M205.535 92.345L204.827 91.6386L204.12 92.3465L153.345 143.228L152.639 143.935L153.346 144.642L159.009 150.293L159.717 150.999L160.423 150.291L204.841 105.781L249.352 150.199L250.06 150.905L250.766 150.197L256.417 144.535L257.124 143.827L256.416 143.12L205.535 92.345Z" fill="#101010" stroke="#F8E61B" stroke-width="2"/>
<path d="M205.535 171.345L204.827 170.639L204.12 171.346L153.345 222.228L152.639 222.935L153.346 223.642L159.009 229.293L159.717 229.999L160.423 229.291L204.841 184.781L249.352 229.199L250.06 229.905L250.766 229.197L256.417 223.535L257.124 222.827L256.416 222.12L205.535 171.345Z" fill="#101010" stroke="#F8E61B" stroke-width="2"/>
<path d="M203.535 251.345L202.827 250.639L202.12 251.346L151.345 302.228L150.639 302.935L151.346 303.642L157.009 309.293L157.717 309.999L158.423 309.291L202.841 264.781L247.352 309.199L248.06 309.905L248.766 309.197L254.417 303.535L255.124 302.827L254.416 302.12L203.535 251.345Z" fill="#101010" stroke="#F8E61B" stroke-width="2"/>
</svg>
